<?xml version="1.0" encoding="utf-8"?>
<!-- Generator: Adobe Illustrator 23.0.1, SVG Export Plug-In . SVG Version: 6.00 Build 0)  -->
<svg version="1.1" id="Layer_1" xmlns="http://www.w3.org/2000/svg" xmlns:xlink="http://www.w3.org/1999/xlink" x="0px" y="0px"
	 viewBox="0 0 1406.5 795.5" style="enable-background:new 0 0 1406.5 795.5;" xml:space="preserve">
<style type="text/css">
	.st0{fill:url(#SVGID_1_);}
	.st1{fill:url(#SVGID_2_);}
</style>
<g>
	
		<linearGradient id="SVGID_1_" gradientUnits="userSpaceOnUse" x1="944.9" y1="468.1" x2="944.9" y2="468.1" gradientTransform="matrix(1 0 0 -1 0 796)">
		<stop  offset="0.25" style="stop-color:#EC1846"/>
		<stop  offset="0.3576" style="stop-color:#F04E71;stop-opacity:0.8565"/>
		<stop  offset="0.4797" style="stop-color:#F5839C;stop-opacity:0.6938"/>
		<stop  offset="0.5993" style="stop-color:#F8AFBF;stop-opacity:0.5343"/>
		<stop  offset="0.7136" style="stop-color:#FBD2DB;stop-opacity:0.3819"/>
		<stop  offset="0.8212" style="stop-color:#FDEBEF;stop-opacity:0.2384"/>
		<stop  offset="0.9195" style="stop-color:#FFFAFB;stop-opacity:0.1073"/>
		<stop  offset="1" style="stop-color:#FFFFFF;stop-opacity:0"/>
	</linearGradient>
	<path class="st0" d="M944.9,327.9L944.9,327.9L944.9,327.9z"/>
	
		<linearGradient id="SVGID_2_" gradientUnits="userSpaceOnUse" x1="1406.3998" y1="398.25" x2="-9.999466e-02" y2="398.25" gradientTransform="matrix(1 0 0 -1 0 796)">
		<stop  offset="0.25" style="stop-color:#EC1846"/>
		<stop  offset="0.3576" style="stop-color:#F04E71;stop-opacity:0.8565"/>
		<stop  offset="0.4797" style="stop-color:#F5839C;stop-opacity:0.6938"/>
		<stop  offset="0.5993" style="stop-color:#F8AFBF;stop-opacity:0.5343"/>
		<stop  offset="0.7136" style="stop-color:#FBD2DB;stop-opacity:0.3819"/>
		<stop  offset="0.8212" style="stop-color:#FDEBEF;stop-opacity:0.2384"/>
		<stop  offset="0.9195" style="stop-color:#FFFAFB;stop-opacity:0.1073"/>
		<stop  offset="1" style="stop-color:#FFFFFF;stop-opacity:0"/>
	</linearGradient>
	<path class="st1" d="M9.1,227.6c1,0,1.9-0.2,2.8-0.4l50.9,89.7c-2.5,1.9-3.8,5-3.5,8.2c0,0.5,0.2,1,0.4,1.5l-33.8,15.1
		c0,0.1,0,0.1,0.1,0.2c-1.5-3-4.6-5.1-8.2-5.1c-5,0-9.1,4.1-9.1,9.1s4.1,9.1,9.1,9.1s9.1-4.1,9.1-9.1c0-0.7-0.1-1.4-0.2-2
		c0,0.1,0,0.2,0.1,0.2l34-15.2c1.1,1.9,3,3.2,5.1,3.8l-24.7,166c-5.1,0-9.2,4.2-9.2,9.3s4.1,9.3,9.3,9.3c2.1,0,4-0.7,5.5-1.9
		l49.6,45.8v0.2c-0.6,1.2-1,2.6-1,4.1c0,1.2,0.2,2.3,0.6,3.4l-40,29.4c-1.7-1.9-4.1-3.1-6.8-3.1c-5,0-9.1,4.1-9.1,9.1
		s4.1,9.1,9.1,9.1s9.1-4.1,9.1-9.1c0-1.3-0.3-2.6-0.8-3.7l40-29.4c0.8,1,1.8,1.8,2.9,2.3L73.2,777.4c-4.4,0.6-7.8,4.4-7.8,9
		c0,5,4.1,9.1,9.1,9.1c4.2,0,7.8-2.9,8.8-6.9l224-5.9c0.2,2.4,1.3,4.7,3.3,6.4c3.9,3.2,9.6,2.6,12.8-1.3l0,0l0,0
		c2.5-3.1,2.7-7.4,0.6-10.6l0,0L476.5,669c1.9,2.1,4.7,3.1,7.5,2.8c3.4-0.3,6.3-2.7,7.3-6l235,46.5c0,0.1,0,0.1,0,0.2
		c0,0.4,0,0.7,0.1,1.1l0,0c0,0.1,0,0.2,0.1,0.4c0,0.1,0,0.3,0.1,0.4c0,0.2,0.1,0.4,0.2,0.6c0,0.1,0,0.1,0.1,0.2v0.1
		c1.2,3.6,4.6,6.3,8.6,6.3c0.7,0,1.3-0.1,1.9-0.2l0,0l0,0c3.7-0.8,6.6-3.9,7.1-7.7l225-5.9c0.5,4.6,4.3,8.1,9,8.1
		c5,0,9.1-4.1,9.1-9.1c0-1.7-0.5-3.3-1.3-4.6L1138.8,594c1.7,1.7,4,2.8,6.5,2.8c0.7,0,1.4-0.1,2-0.2c0.2,0,0.4-0.1,0.6-0.2
		c0.1,0,0.1,0,0.2-0.1c0.8-0.2,1.5-0.6,2.1-1c0.2-0.1,0.3-0.2,0.5-0.3c0.1-0.1,0.2-0.1,0.3-0.2c1.3-1,2.3-2.4,2.9-4l234.4,46.3
		c0,0.1,0,0.2,0,0.4c0,5,4.1,9.1,9.1,9.1c0.5,0,0.9,0,1.3-0.1l0,0l1-0.1v-0.1c3.9-1,6.7-4.6,6.7-8.8c0-5-4.1-9.1-9.1-9.1
		c-1.2,0-2.3,0.2-3.4,0.7l-75.4-122.4c2.3-1.9,3.5-4.9,3.2-7.9c-0.1-1.2-0.5-2.3-1.1-3.2l56.1-41.3c1.7,2.2,4.3,3.6,7.2,3.6
		c5,0,9.1-4.1,9.1-9.1s-4.1-9.1-9.1-9.1s-9.1,4.1-9.1,9.1c0,1.1,0.2,2.1,0.6,3.1l-56.3,41.3c-0.5-0.7-1.2-1.2-2-1.6l46.9-124.3
		c0.6,0.1,1.2,0.2,1.8,0.2c5,0,9.1-4.1,9.1-9.1s-4.1-9.1-9.1-9.1c-1.6,0-3.1,0.4-4.4,1.2l-88.1-113.6c1.9-1.9,2.9-4.6,2.5-7.3
		c0-0.5-0.2-1-0.4-1.5l72-32.3c1.4,3.1,4.6,5.3,8.3,5.3c5,0,9.1-4.1,9.1-9.1s-4.1-9.1-9.1-9.1s-9.1,4.1-9.1,9.1c0,0.4,0,0.8,0.1,1.2
		l-72.3,32.5c-0.8-1.2-1.8-2.2-2.9-3L1331,76.8c0.7,0.2,1.5,0.3,2.3,0.3c5,0,9.1-4.1,9.1-9.1s-4.1-9.1-9.1-9.1
		c-3.3,0-6.2,1.8-7.8,4.4l-119.9-51.9c0.1-0.4,0.2-0.7,0.2-1.1c0-0.1,0-0.1,0.1-0.2l0,0c0-0.3,0.1-0.7,0.1-1c0-5-4.1-9.1-9.1-9.1
		s-9.1,4.1-9.1,9.1c0,1.6,0.4,3.1,1.2,4.5l-130,95.7c-1.1-1.2-2.6-2-4.1-2.4l7.7-78.6c4.7-0.3,8.4-4.3,8.4-9.1c0-5-4.1-9.1-9.1-9.1
		s-9.1,4.1-9.1,9.1c0,4.4,3.1,8.1,7.3,8.9l-7.8,78.5l-0.5,0.1c-2.5,0.3-4.8,1.7-6.3,3.8L915,45c0.2-0.8,0.4-1.7,0.4-2.6
		c0-5-4.1-9.1-9.1-9.1s-9.1,4.1-9.1,9.1c0,0.8,0.1,1.5,0.3,2.2L795,90.5c-1.6-2.6-4.5-4.4-7.8-4.4c-5,0-9.1,4.1-9.1,9.1
		c0,0.8,0.1,1.6,0.3,2.4l-26.9,11.1l-73.2,30c-1.5-2.5-4-4.2-7-4.4c-0.3,0-0.5-0.1-0.8-0.1l0,0l0,0c-3.2,0-6.1,1.7-7.7,4.3L544,86.9
		l0,0c0.1-0.4,0.1-0.8,0.1-1.2c0-5-4.1-9.1-9.1-9.1s-9.1,4.1-9.1,9.1c0,1.1,0.2,2.1,0.5,3.1l-129.8,95.6c-1.1-1.2-2.6-2-4.1-2.4
		l7.3-74.1c-0.1,0-0.1,0-0.2,0c4.1-0.9,7.2-4.5,7.2-8.9c0-5-4.1-9.1-9.1-9.1s-9.1,4.1-9.1,9.1s4,9,8.9,9.1c-0.1,0-0.2,0-0.3,0
		l-7.3,73.6c-2.9,0.1-5.5,1.5-7.1,3.7l-129.9-65.3c0-0.3,0.1-0.6,0.1-1c0-5-4.1-9.1-9.1-9.1s-9.1,4.1-9.1,9.1c0,0.2,0,0.5,0,0.7
		l-102.1,45.8c-1.8-2.9-5.1-4.5-8.5-4.2c-3.1,0.3-5.9,2.3-7.2,5.2l-61.9-24.3c0.3-1,0.5-2,0.5-3.1c0-5-4.1-9.1-9.1-9.1
		s-9.1,4.1-9.1,9.1s4.1,9.1,9.1,9.1c3,0,5.6-1.4,7.3-3.7l62.1,24.4c-0.1,0.8-0.1,1.6,0,2.3c0.1,0.5,0.1,0.8,0.1,1.3l-26.9,11.1
		l-72.5,29.7c-1.6-2.5-4.4-4.2-7.6-4.2c-5,0-9.1,4.1-9.1,9.1S4.1,227.6,9.1,227.6z M45.8,499.9c-0.6-0.4-1.3-0.7-2.1-0.9l24.9-166.4
		l1-0.1c4.4-0.4,7.8-4.2,7.8-8.6l106-12l0,0c0.3,1.5,1.1,2.8,2.2,3.9L45.8,499.9z M188,317.6c1.6,0.9,3.5,1.3,5.3,1.2
		c1.4-0.2,2.8-0.7,4-1.5l0,0l79.2,89c-1.6,1.8-2.4,4.3-2.1,6.7c0,0.2,0.1,0.8,0.1,1l-225,89.7c-0.4-0.8-0.9-1.6-1.6-2.2L188,317.6z
		 M458.3,318.5L458.3,318.5L458.3,318.5l237,111.9c-0.3,0.9-0.4,1.8-0.4,2.7c0,0.4,0,0.9,0.1,1.3l-154.6,44.4
		c-1.6-3.5-5.3-5.5-9.1-5.2c-0.6,0-1.2,0.2-1.8,0.5l-73.8-152.9C456.8,320.5,457.6,319.6,458.3,318.5L458.3,318.5z M609.1,313
		L609.1,313C609.1,313,609.1,313.1,609.1,313l88.2,114c-0.3,0.4-0.7,0.8-0.9,1.2l-237-111.8c0.2-0.6,0.3-1.2,0.3-1.8l136.2-7.4
		c0.9,4.6,5.2,7.7,9.8,7.2C606.9,314.1,608.1,313.7,609.1,313L609.1,313z M541.2,481.3v-0.2l154.4-44.3c0.8,1.9,2.2,3.4,4,4.4
		l-47.1,124.7c-0.9-0.2-1.9-0.3-2.9-0.2c-1.9,0.3-3.7,1.1-5.1,2.4L540,486.8C541,485.1,541.4,483.2,541.2,481.3z M527.3,475.1
		c-1.2,0.9-2.2,1.9-3,3.2l-97.8-34.1c0.2-0.9,0.3-1.7,0.2-2.6c-0.3-3.2-2.4-6-5.5-7.1L450,322.8c0.5-0.1,1-0.1,1.8-0.2
		c0.6,0,1.2-0.2,1.8-0.5l0,0L527.3,475.1z M418.7,433.6c-0.7-0.2-1.4-0.2-2.1,0l0,0c-3.3,0.5-6.1,2.7-7.3,5.8l-90.1-20.6l-26.7-6
		c-0.1-0.5,0.1-1.1,0.1-1.8c-0.1-0.8-0.4-1.5-0.5-2.3l152.2-89.4c0.7,1.2,1.8,2.2,3.1,2.7L418.7,433.6z M249.6,587.7
		c-0.2-1.3-0.6-2.6-1.2-3.7l163.3-135.1c0.7,0.7,1.6,1.2,2.5,1.5l-54.4,199l-2,0.2c-2.4,0.3-4.5,1.5-6.1,3.3L249,592.2
		C249.6,590.8,249.8,589.2,249.6,587.7z M408.5,441.8c0.1,0.5-0.1,1.1-0.1,1.8c0.4,1.3,0.9,2.5,1.5,3.7L246.6,582.4
		c-0.8-0.7-1.8-1.3-2.8-1.8l38.7-159.7c0.5-0.1,1.3,0.1,1.8,0.1c3.3-0.5,6.1-2.6,7.4-5.7L408.5,441.8z M241.2,579.9
		c-0.5,0.1-1.3-0.1-1.8-0.1l0,0c-3.5,0.4-6.5,2.9-7.5,6.3l-118.3-20.3c0-0.1,0-0.2,0-0.4c0-2-0.7-3.9-1.8-5.4l-0.2-0.6l165.7-140.8
		c0.8,0.6,1.6,1.1,2.5,1.5L241.2,579.9z M234.2,595.2l-8.6,10.8l-81.2,103c-1.6-0.9-3.5-1.3-5.3-1.2l-32.6-133.5
		c3.1-0.7,5.6-3,6.7-6l118.5,20.4c0.1,0.5,0.1,0.8,0.1,1.3C232,591.9,232.9,593.7,234.2,595.2z M98.1,559l-49.3-45.6
		c1.1-1.5,1.8-3.4,1.8-5.4c0-0.5-0.1-1-0.1-1.5c29.5-12.1,225.2-89.9,225.2-89.9c0,0.1,0.1,0.2,0.3,0.2l0,0l-166.1,141h-0.4
		c-1.4-1-3.2-1.5-5-1.5C102,556.3,99.7,557.4,98.1,559z M79.5,778.8c-1.1-0.7-2.3-1.2-3.7-1.4l27.3-203c0.3,0,0.7,0.1,1,0.1
		l32.6,133.8c-3.8,1.5-6.1,5.4-5.6,9.4c0.2,1.6,0.8,3.2,1.8,4.4L79.5,778.8z M307.5,780.2l-223.9,5.6c-0.1-2-0.9-3.8-2.1-5.3
		l53.3-56.5c4,2.9,9.6,2,12.5-2c0.2-0.3,0.4-0.7,0.6-1l0,0l159.9,58.4C307.7,779.7,307.5,779.9,307.5,780.2z M315.2,772.9
		L315.2,772.9c-2.7,0.3-5.1,1.8-6.5,4.1l-159.9-58.6c0.2-0.9,0.3-1.9,0.2-2.9c-0.3-1.9-1.1-3.7-2.4-5.2l89.8-113.8
		c3.9,2.2,8.8,1.4,11.6-2.1l102.6,60.7c-0.6,1.4-0.8,2.9-0.5,4.5c0.3,3,2.2,5.7,4.9,6.9L318,773
		C317.1,772.9,316.1,772.8,315.2,772.9z M322.1,775.2c-0.6-0.6-1.4-1-2.2-1.3l37-106.3c0.9,0.2,1.7,0.3,2.6,0.2
		c3.9-0.5,7-3.5,7.7-7.3l106.7,3.4c0.2,1,0.5,2,0.9,3L322.1,775.2z M474.4,661l-106.7-3.4c-0.3-3.2-2.4-6-5.5-7.1l54.3-199
		c0.7,0.1,1.4,0.1,2.1,0h0.3l0,0l60.4,203C476.7,655.7,474.8,658.1,474.4,661z M484.1,653.4l-2,0.2l-60.7-203
		c1.9-0.8,3.4-2.2,4.2-4.1l0,0l97.8,34.1c-0.2,0.9-0.3,1.7-0.2,2.6c0.3,3.2,2.5,6,5.5,7.1L484.1,653.4z M490.2,657.4
		c-0.9-1.4-2.2-2.4-3.7-2.9l44.5-163c0.7,0.1,1.4,0.1,2.1,0c1.9-0.3,3.7-1.1,5.1-2.4l0,0l0,0l0,0l10.7,8.3l93.7,72.9
		c-0.9,1.7-1.3,3.6-1.2,5.6c0,0.7,0.2,1.4,0.5,2L490.2,657.4z M726.9,709.4l-235.1-46.2c-0.1-0.5,0.1-1,0.1-1.6c0-0.7-0.2-1.4-0.5-2
		l152-79.8c1.8,2.7,5,4.1,8.2,3.7c0.9-0.1,1.7-0.4,2.5-0.8l0,0l75.6,122.7C728.4,706.5,727.5,707.8,726.9,709.4z M735.4,703.3
		c-1.3,0-2.6,0.3-3.7,0.8l-75.4-122.5c2.3-1.9,3.5-4.9,3.2-7.9c-0.1-1.2-0.5-2.3-1.1-3.2l56.9-42l-0.3-3l0.2-0.2v-0.1L656.8,568
		c-0.5-0.7-1.2-1.2-2-1.6l47-124.6c0.7,0.2,1.4,0.3,2.1,0.3c0.5,0,1.1-0.1,1.6-0.1v0.1c0.4-0.1,0.7-0.2,1.1-0.3c1-0.3,2-0.8,2.8-1.4
		l49.4,45.6c-0.8,1.6-1.1,3.3-1,5c0.1,0.9,0.4,1.7,0.8,2.5l-43.3,31.9l0.3,3l-0.2,0.2l0,0l44.5-32.7c0.8,1,1.7,1.7,2.8,2.3
		L735.4,703.3z M845.8,236.8L845.8,236.8L845.8,236.8c0.3,1.5,1.1,2.8,2.2,3.9L708,425c-0.6-0.3-1.1-0.5-1.8-0.7
		c-0.1,0-0.1-0.1-0.2-0.1l25-166.7l1-0.1c4.4-0.4,7.8-4.2,7.8-8.6L845.8,236.8L845.8,236.8z M859.6,242.2L859.6,242.2L859.6,242.2
		l79.2,89c-1.6,1.8-2.4,4.3-2.1,6.7c0,0.2,0.1,0.8,0.1,1l-225,89.8c-0.4-0.8-1-1.5-1.6-2.1l140.1-184.1c1.6,0.9,3.5,1.3,5.3,1.2
		C857.1,243.5,858.4,243,859.6,242.2L859.6,242.2z M954.1,340.1L954.1,340.1L954.1,340.1l116.8,26.6c0.1,0.5-0.1,1.1-0.1,1.8
		c0.4,1.3,0.9,2.5,1.5,3.7L909,507.2c-0.8-0.7-1.8-1.3-2.8-1.8l38.7-159.7c0.5-0.1,1.3,0.1,1.8,0.1
		C950,345.4,952.8,343.2,954.1,340.1L954.1,340.1z M1356.9,359.4l-154.1,44.3c-1.6-3.5-5.3-5.5-9.1-5.2c-0.6,0-1.2,0.2-1.8,0.4
		L1118.1,246c1-0.7,1.9-1.6,2.5-2.6l0,0l236.7,111.7c-0.4,1-0.6,2-0.6,3.1C1356.8,358.6,1356.8,359,1356.9,359.4z M1189.7,399.9
		c-1.2,0.9-2.2,1.9-3,3.2l-97.8-34.2c0.2-0.9,0.3-1.7,0.2-2.6c-0.3-3.2-2.5-6-5.5-7.1l28.6-111.6c0.5-0.1,1-0.1,1.8-0.2
		c0.6,0,1.2-0.2,1.8-0.5L1189.7,399.9z M1081,358.5c-0.7-0.2-1.4-0.2-2.1,0l0,0c-3.3,0.5-6.1,2.7-7.3,5.8l-90.1-20.6l-26.7-6
		c-0.1-0.5,0.1-1.1,0.1-1.8c-0.1-0.8-0.4-1.5-0.5-2.3l152.2-89.4c0.7,1.2,1.8,2.2,3.1,2.8L1081,358.5z M911.9,512.6
		c-0.2-1.3-0.6-2.6-1.2-3.7L1074,373.8l0,0l0,0l0,0c0.7,0.7,1.6,1.2,2.5,1.5l-54.4,199l-2,0.2c-2.4,0.3-4.5,1.5-6.1,3.3L911.4,517
		C912,515.6,912.2,514.1,911.9,512.6z M903.6,504.7c-0.5,0.1-1.3-0.1-1.8-0.1l0,0c-3.5,0.4-6.5,2.9-7.5,6.3l-118.7-20.4
		c-0.1-0.5,0.1-1.1,0.1-1.8c0-1.6-0.6-3.2-1.5-4.5l165.7-140.8c0.8,0.6,1.6,1.1,2.5,1.5L903.6,504.7z M712.8,431.2L938,341.4
		c0,0.1,0.1,0.2,0.3,0.2l0,0l-166,141.1c-1.7-1.4-3.9-1.9-6.1-1.6c-2.2,0.2-4.2,1.3-5.6,3l-49.3-45.6c1.1-1.5,1.7-3.3,1.7-5.3
		C713,432.4,713,431.8,712.8,431.2z M775.3,493.2L775.3,493.2L894,513.6c0.1,0.5,0.1,0.8,0.1,1.3c0.3,1.9,1.1,3.7,2.4,5.1l-8.6,10.8
		l-81.2,103c-1.6-0.9-3.5-1.3-5.3-1.2l-32.7-133.8C771.7,498.2,774.2,496,775.3,493.2z M740.7,705c-0.8-0.6-1.7-1-2.7-1.3l27.6-205
		l0,0c0.3,0,0.5,0.2,0.8,0.2l32.8,134.3c-3.8,1.5-6.1,5.4-5.6,9.4c0.2,1.6,0.8,3.2,1.8,4.5L740.7,705z M969.6,705.1l-225.2,5.7
		c-0.3-1.5-0.9-2.9-1.9-4L797,649c1.8,1.2,4,1.8,6.1,1.6c2.9-0.4,5.5-2.1,7-4.7l0,0l0,0l0,0l159.7,58.3
		C969.7,704.5,969.7,704.8,969.6,705.1z M978.6,697.6c-3.2,0-6,1.7-7.6,4.2l-159.8-58.6c0.2-0.9,0.3-1.9,0.2-2.9
		c-0.3-1.9-1.1-3.7-2.4-5.2l89.8-113.8c1.7,0.9,3.6,1.3,5.6,1.2c2.4-0.3,4.5-1.5,6.1-3.3L1013,580c-0.6,1.4-0.8,2.9-0.5,4.5
		c0.3,3,2.2,5.7,4.9,6.9l-36.9,106.4C979.8,697.7,979.2,697.6,978.6,697.6z M984.6,699.9c-0.7-0.6-1.4-1.1-2.2-1.5l36.9-106
		c0.9,0.2,1.7,0.3,2.6,0.2c3.9-0.5,7-3.5,7.7-7.3l0,0l106.8,3.5c0.1,1,0.4,2,0.9,2.9L984.6,699.9z M1136.5,585.8l-106.5-3.4
		c-0.3-3.2-2.4-6-5.5-7.1l54.3-199c0.7,0.1,1.4,0.1,2.1,0h0.3l0,0l60.4,203C1139,580.5,1137.1,582.9,1136.5,585.8z M1146.4,578.6
		c-0.3,0-0.7-0.1-1-0.1c-0.4,0-0.7,0-1.1,0.1l-60.6-203.1c1.9-0.8,3.4-2.2,4.2-4.1l0,0l97.8,34.1c-0.2,0.9-0.3,1.7-0.2,2.6
		c0.3,3.2,2.4,6,5.5,7.1L1146.4,578.6z M1148.9,579.2l44.5-162.9c0.7,0.1,1.4,0.1,2.1,0c1.9-0.3,3.7-1.1,5.1-2.4l0,0l0,0l0,0
		l10.7,8.3l93.7,72.9c-0.9,1.7-1.3,3.6-1.2,5.6c0,0.7,0.2,1.4,0.5,2l-151.6,79.4C1151.7,580.9,1150.4,579.9,1148.9,579.2z
		 M1391.9,630.1c-1.3,1-2.4,2.4-3,4L1154.5,588c0-0.1,0-0.3,0-0.4c0-1.1-0.2-2.2-0.6-3.2l151.9-79.8c1.8,2.7,5,4.1,8.2,3.7
		c0.9-0.1,1.7-0.4,2.5-0.8l0,0L1391.9,630.1z M1361.8,366.3l-47,124.4c-0.9-0.2-1.9-0.3-2.9-0.2l0,0c-1.9,0.3-3.7,1.1-5.1,2.4
		l-104.4-81.2c0.9-1.7,1.3-3.6,1.2-5.6v-0.2l153.9-44.2C1358.3,363.7,1359.9,365.4,1361.8,366.3z M1359.5,351.7
		c-0.4,0.4-0.7,0.8-1,1.2l-236.8-111.7c0.2-0.6,0.3-1.2,0.3-1.8l136.2-7.4c0.9,4.6,5.2,7.7,9.8,7.2c1.2-0.1,2.4-0.5,3.5-1.2l0,0
		L1359.5,351.7z M1204.5,14l120,51.6c-0.2,0.8-0.3,1.6-0.3,2.5c0,3.3,1.8,6.3,4.5,7.8l-59.6,145.5c-1-0.2-2.1-0.2-3.1-0.2
		c-0.3,0-0.3,0-0.5,0.1l-64.9-203.9C1202.2,16.7,1203.5,15.5,1204.5,14z M1196.9,18.2c0.5,0,1-0.1,1.5-0.1l64.9,204
		c-2.8,1.5-4.7,4.2-5.1,7.3l-136.2,7.4c-0.5-2.7-2.2-5-4.6-6.2L1194.9,18C1195.5,18.1,1196.2,18.2,1196.9,18.2z M1061.4,114.4
		c-0.1-1.2-0.5-2.3-1.1-3.2l130.2-95.6c0.6,0.6,1.3,1.1,2.1,1.5L1115,229.8c-0.9-0.2-1.9-0.3-2.9-0.2c-0.6,0-1.2,0.2-1.8,0.5
		l-52.9-107.2C1060.2,121,1061.7,117.7,1061.4,114.4z M1053,124.4c0.6,0,1.2-0.2,1.8-0.5l52.9,107.2c-2.4,2.1-3.7,5.2-3.4,8.4
		c0.1,0.8,0.4,1.5,0.5,2.3l-152.2,89.4c-0.5-0.7-1.2-1.4-2-1.8l98.8-205.3C1050.5,124.4,1051.7,124.6,1053,124.4z M1045.6,121.1
		c0.4,0.8,1,1.5,1.8,1.9l-98.8,205.3c-1.2-0.4-2.4-0.5-3.7-0.4c-1.4,0.2-2.8,0.7-4,1.5l-79.2-89c1.6-1.8,2.4-4.3,2.1-6.7
		c-0.1-0.9-0.4-1.7-0.8-2.5L1045.6,121.1z M906.3,51.5c3.1,0,5.8-1.5,7.4-3.9l130.1,65.2c-0.4,1.3-0.5,2.6-0.3,3.9
		c0.1,0.9,0.4,1.7,0.8,2.5L861.8,229.3c-0.8-1.2-2-2-3.4-2.5L905,51.4C905.5,51.4,905.9,51.5,906.3,51.5z M796.3,95.2
		c0-0.9-0.1-1.7-0.4-2.5l102.4-45.9l0,0c0.9,1.6,2.3,2.9,3.9,3.7l-46.6,175.3c-0.7-0.1-1.4-0.1-2.1,0l0,0c-0.6,0-1.2,0.2-1.8,0.4
		l-59.6-123.5C794.7,101.2,796.3,98.4,796.3,95.2z M679.4,141l78.4-32.2l21.6-8.9c1.5,2.6,4.3,4.3,7.5,4.4h0.1c0.1,0,0.2,0,0.2,0
		c0.3,0,0.6,0,0.9,0h0.1c0.4,0,0.7-0.1,1.1-0.2c0.2-0.1,0.5-0.1,0.7-0.2l59.6,123.5c-0.9,0.6-1.7,1.4-2.3,2.3l-168-83.7
		c0.3-0.9,0.4-1.8,0.4-2.7C679.7,142.5,679.6,141.7,679.4,141z M678.3,148.2l168,83.6c-0.2,0.8-0.3,1.6-0.5,2.6l-106,12
		c-1.1-4.3-5.1-7.1-9.5-6.7c-0.8,0.1-1.5,0.4-2.3,0.5L676.5,150C677.2,149.6,677.8,148.9,678.3,148.2z M670.9,134.2L670.9,134.2
		c-0.1,0-0.1,0-0.2,0H670.9z M670.6,152.4c1.2,0,2.4-0.2,3.4-0.7l51.1,90c-2.5,1.9-3.8,5-3.5,8.1c0,0.5,0.2,1,0.4,1.5l-36,16.2
		l0.3,2.6l36.8-16.5c1.1,1.9,3,3.2,5.1,3.8L703.5,424c-1.6,0.1-3.1,0.6-4.4,1.4L611,311.8c1.9-1.9,2.9-4.6,2.5-7.3
		c0-0.5-0.2-1-0.4-1.5l73.2-32.8v-0.1l-0.2,0.1l-0.3-2.6l0.2-0.1v-0.1l-73.9,33.2c-0.8-1.2-1.8-2.2-2.9-3l59.4-145.4
		C669.2,152.3,669.9,152.4,670.6,152.4z M543.2,89.6l118.7,51c-0.3,0.8-0.4,1.7-0.4,2.6c0,3.4,1.9,6.4,4.7,8l-59.5,145.3
		c-1-0.2-2.1-0.2-3.1-0.2l-0.5,0.1L538.7,94C540.7,93.1,542.3,91.6,543.2,89.6z M535,94.8c0.5,0,1,0,1.4-0.1l64.4,202.5
		c-2.8,1.5-4.7,4.2-5.1,7.3l-136.2,7.4c-0.5-2.7-2.2-5-4.6-6.2L532,94.3C533,94.6,534,94.8,535,94.8z M399.2,190.8
		c0-1.7-0.5-3.2-1.2-4.6L527.6,91c0.6,0.8,1.3,1.6,2.2,2.1l-77.2,211.8c-0.9-0.2-1.9-0.3-2.9-0.2c-0.6,0-1.2,0.2-1.8,0.5
		l-52.8-106.9C397.6,196.7,399.2,193.9,399.2,190.8z M390.1,199.9c0.9,0,1.7-0.1,2.5-0.4l52.7,106.7c-2.4,2.1-3.7,5.2-3.4,8.4
		c0.1,0.8,0.4,1.5,0.5,2.3l-152.2,89.4c-0.5-0.7-1.2-1.4-2-1.8l98.7-205.2C387.9,199.7,389,199.9,390.1,199.9z M382.9,196.4
		c0.6,0.7,1.2,1.4,2,1.9l-98.7,205.1c-1.2-0.4-2.4-0.5-3.7-0.4l0,0c-1.4,0.2-2.8,0.7-4,1.5l-79.2-89c1.6-1.8,2.4-4.3,2.1-6.7
		c-0.1-0.9-0.4-1.7-0.8-2.5L382.9,196.4z M243.8,128.3c3.7,0,6.8-2.2,8.2-5.3l129.5,64.8c-0.3,0.9-0.5,1.9-0.5,2.9
		c0,1.3,0.3,2.5,0.8,3.6l-182.4,110c-0.8-1.2-2-2-3.4-2.5L242.2,128C242.7,128.3,243.3,128.3,243.8,128.3z M133.8,169.5
		c0-0.5-0.2-1-0.4-1.5l101.9-45.7c0.8,2.1,2.3,3.9,4.3,5L193.3,301c-0.7-0.1-1.4-0.1-2.1,0l0,0c-0.6,0-1.2,0.2-1.8,0.4l-59.7-123.5
		C132.6,176.1,134.2,172.8,133.8,169.5z M17.8,215.8l77.6-31.9l21.7-8.9c1.8,3.1,5.2,4.8,8.8,4.4c0.6,0,1.2-0.2,1.8-0.5l0,0
		l59.7,123.5c-0.9,0.6-1.7,1.4-2.3,2.3L17.7,221.5c0.3-0.9,0.5-2,0.5-3S18,216.6,17.8,215.8z M16.6,223.6L184,307
		c-0.2,0.8-0.3,1.6-0.5,2.6l-106,12c-1.1-4.3-5.1-7.1-9.5-6.7c-0.8,0.1-1.5,0.4-2.3,0.5l-51.3-89.6C15.3,225.2,16,224.5,16.6,223.6z
		"/>
</g>
</svg>
