<?xml version="1.0" encoding="utf-8"?>
<!DOCTYPE svg PUBLIC "-//W3C//DTD SVG 1.1//EN" "http://www.w3.org/Graphics/SVG/1.1/DTD/svg11.dtd">
<svg xmlns="http://www.w3.org/2000/svg" xmlns:xlink="http://www.w3.org/1999/xlink" width="3553px" height="711px">
<defs>
    <linearGradient id="PSgrad_0" x1="0%" x2="0%" y1="0%" y2="100%">
    <stop offset="0%" stop-color="rgb(61,24,61)" stop-opacity="1" />
    <stop offset="100%" stop-color="rgb(236,24,70)" stop-opacity="1" />
    </linearGradient>
</defs>

<path fill-rule="evenodd" fill="url(#PSgrad_0)" d="M3551.9,677.6c0.3,0,0.8,0,1.1,0v19.2c-0.3,0-0.8,0-1.1,0c-5.2,0-9.6-4.4-9.6-9.6c0-0.5,0.3-0.8,0.3-1.4
	l-243.4-77.4c-1.4,3.3-4.6,5.5-8.5,5.5c-3.3,0-6-1.6-7.6-3.8l-174.6,96.3c0.5,1.4,0.8,2.7,0.8,4.1c0,0.3,0,0.3,0,0.5h-19.1
	c0-0.3,0-0.3,0-0.5v-0.3l-239.3-20.8c-1.1,3.8-4.1,6.8-8.2,7.4v-19.2l53.5-214c-1.1-0.5-1.9-1.6-2.7-2.7l-51.1,29.3v-0.3l-65.6,37.8
	c0.5,1.1,0.8,2.2,0.8,3.6c0,3.3-1.9,6.3-4.4,7.9l65.3,139c0.8-0.3,1.6-0.5,2.7-0.5c0.3,0,0.8,0,1.1,0v19.2c-0.3,0-0.8,0-1.1,0
	c-5.2,0-9.6-4.4-9.6-9.6c0-0.5,0.3-0.8,0.3-1.4l-243.4-77.4c-1.4,3.3-4.6,5.5-8.5,5.5c-3.3,0-6-1.6-7.6-3.8l-174.6,96.3
	c0.5,1.4,0.8,2.7,0.8,4.1c0,0.3,0,0.3,0,0.5h-19.1c0-0.3,0-0.3,0-0.5v-0.3l-239.3-20.8c-1.1,3.8-4.1,6.8-8.2,7.4v-19.2l53.5-214
	c-1.1-0.5-1.9-1.6-2.7-2.7l-51.1,29.3v-0.3l-65.6,37.8c0.5,1.1,0.8,2.2,0.8,3.6c0,3.3-1.9,6.3-4.4,7.9l65.3,139
	c0.8-0.3,1.6-0.5,2.7-0.5c0.3,0,0.8,0,1.1,0v19.2c-0.3,0-0.8,0-1.1,0c-5.2,0-9.6-4.4-9.6-9.6c0-0.5,0.3-0.8,0.3-1.4L1878,608.3
	c-1.4,3.3-4.6,5.5-8.5,5.5c-3.3,0-6-1.6-7.6-3.8l-174.6,96.3c0.5,1.4,0.8,2.7,0.8,4.1c0,0.3,0,0.3,0,0.5H1669c0-0.3,0-0.3,0-0.5
	v-0.3l-239.3-20.8c-1.1,3.8-4.1,6.8-8.2,7.4v-19.2l53.5-214c-1.1-0.5-1.9-1.6-2.7-2.7l-51.1,29.3v-0.3l-65.6,37.8
	c0.5,1.1,0.8,2.2,0.8,3.6c0,3.3-1.9,6.3-4.4,7.9l65.3,139c0.8-0.3,1.6-0.5,2.7-0.5c0.3,0,0.8,0,1.1,0v19.2c-0.3,0-0.8,0-1.1,0
	c-5.2,0-9.6-4.4-9.6-9.6c0-0.5,0.3-0.8,0.3-1.4l-243.4-77.4c-1.4,3.3-4.6,5.5-8.5,5.5c-3.3,0-6-1.6-7.7-3.8l-174.6,96.3
	c0.5,1.4,0.8,2.7,0.8,4.1c0,0.3,0,0.3,0,0.5h-19.1c0-0.3,0-0.3,0-0.5v-0.3l-239.3-20.8c-1.1,3.8-4.1,6.8-8.2,7.4v-19.2l53.5-214
	c-1.1-0.5-1.9-1.6-2.7-2.7l-51.1,29.3v-0.3L645,527.6c0.5,1.1,0.8,2.2,0.8,3.6c0,3.3-1.9,6.3-4.4,7.9l65.3,139
	c0.8-0.3,1.6-0.5,2.7-0.5c0.3,0,0.8,0,1.1,0v19.2c-0.3,0-0.8,0-1.1,0c-5.2,0-9.6-4.4-9.6-9.6c0-0.5,0.3-0.8,0.3-1.4l-243.4-77.4
	c-1.4,3.3-4.6,5.5-8.5,5.5c-3.3,0-6-1.6-7.6-3.8l-174.6,96.3c0.5,1.4,0.8,2.7,0.8,4.1c0,0.3,0,0.3,0,0.5h-19.1c0-0.3,0-0.3,0-0.5
	v-0.3L8.5,689.4c-1.1,3.8-4.1,6.8-8.2,7.4v-19.2l53.5-214c-1.1-0.5-1.9-1.6-2.7-2.7L0,490.1v-3.3l50-28.7c-0.3-0.8-0.5-1.9-0.5-2.7
	c0-1.9,0.8-3.8,1.6-5.2l-47-54.5c-1.4,1.1-2.7,1.4-4.1,1.6v-19.2l46.2-173.8c-2.2-0.8-3.8-2.5-4.9-4.7L0,212.9v-2.7l40.4-12.9
	c-0.3-0.5-0.3-1.1-0.3-1.6c0-3.6,1.9-6.6,4.6-8.2L1.4,85.7c-0.5,0-0.8,0.3-1.4,0.3V67c3.3,0.5,6.3,2.7,7.6,5.7l81.1-23l29.8-8.5
	c0-0.5,0-0.8,0-1.4c0-0.8,0-1.6,0.3-2.5L48.1,0h6l66.1,35c1.6-2.7,4.6-4.7,8.2-4.7c3.6,0,6.8,2.2,8.5,5.5L249.4,0h20.5
	c0,0.8-0.3,1.4-0.5,1.9L399.7,87c1.6-1.9,4.4-3.3,7.1-3.3c0,0,0.3,0,0.5,0l18-83.7h2.7l-18,84.3c1.6,0.5,3,1.6,4.1,3L563.6,1.4
	c-0.3-0.5-0.5-0.8-0.5-1.4h18.6c-0.3,0.5-0.3,0.8-0.5,1.4l121,69.5c1.6-2.5,4.4-3.8,7.4-3.8c0.3,0,0.8,0,1.1,0v0
	c3.3,0.5,6.3,2.7,7.6,5.7l81.1-23l29.8-8.5c0-0.5,0-0.8,0-1.4c0-0.8,0-1.6,0.3-2.5L758.7,0h6l66.1,35c1.6-2.7,4.6-4.7,8.2-4.7
	c3.6,0,6.8,2.2,8.5,5.5L960,0h20.5c0,0.8-0.3,1.4-0.5,1.9L1110.3,87c1.6-1.9,4.4-3.3,7.1-3.3c0,0,0.3,0,0.5,0L1136,0h2.7l-18,84.3
	c1.6,0.5,3,1.6,4.1,3l149.4-85.9c-0.3-0.5-0.5-0.8-0.5-1.4h18.6c-0.3,0.5-0.3,0.8-0.5,1.4l121,69.5c1.6-2.5,4.4-3.8,7.4-3.8
	c0.3,0,0.8,0,1.1,0v0c3.3,0.5,6.3,2.7,7.6,5.7l81.1-23l29.8-8.5c0-0.5,0-0.8,0-1.4c0-0.8,0-1.6,0.3-2.5L1469.3,0h6l66.1,35
	c1.6-2.7,4.6-4.7,8.2-4.7c3.6,0,6.8,2.2,8.5,5.5L1670.6,0h20.5c0,0.8-0.3,1.4-0.5,1.9L1820.9,87c1.6-1.9,4.4-3.3,7.1-3.3
	c0,0,0.3,0,0.5,0l18-83.7h2.7l-18,84.3c1.6,0.5,3,1.6,4.1,3l149.4-85.9c-0.3-0.5-0.5-0.8-0.5-1.4h18.6c-0.3,0.5-0.3,0.8-0.5,1.4
	l121,69.5c1.6-2.5,4.4-3.8,7.4-3.8c0.3,0,0.8,0,1.1,0v0c3.3,0.5,6.3,2.7,7.6,5.7l81.1-23l29.8-8.5c0-0.5,0-0.8,0-1.4
	c0-0.8,0-1.6,0.3-2.5L2179.9,0h6l66.1,35c1.6-2.7,4.6-4.7,8.2-4.7c3.6,0,6.8,2.2,8.5,5.5L2381.2,0h20.5c0,0.8-0.3,1.4-0.5,1.9
	L2531.5,87c1.6-1.9,4.4-3.3,7.1-3.3c0,0,0.3,0,0.5,0l18-83.7h2.7l-18,84.3c1.6,0.5,3,1.6,4.1,3l149.4-85.9c-0.3-0.5-0.5-0.8-0.5-1.4
	h18.6c-0.3,0.5-0.3,0.8-0.5,1.4l121,69.5c1.6-2.5,4.4-3.8,7.4-3.8c0.3,0,0.8,0,1.1,0v0c3.3,0.5,6.3,2.7,7.6,5.7l81.1-23l29.8-8.5
	c0-0.5,0-0.8,0-1.4c0-0.8,0-1.6,0.3-2.5L2890.5,0h6l66.1,35c1.6-2.7,4.6-4.7,8.2-4.7c3.6,0,6.8,2.2,8.5,5.5L3091.8,0h20.5
	c0,0.8-0.3,1.4-0.5,1.9L3242.1,87c1.6-1.9,4.4-3.3,7.1-3.3c0,0,0.3,0,0.5,0l18-83.7h2.7l-18,84.3c1.6,0.5,3,1.6,4.1,3L3406,1.4
	c-0.3-0.5-0.5-0.8-0.5-1.4h18.6c-0.3,0.5-0.3,0.8-0.5,1.4l121,69.5c1.6-2.5,4.4-3.8,7.4-3.8c0.3,0,0.8,0,1.1,0v18.9
	c-0.3,0-0.8,0-1.1,0c-1.1,0-2.2-0.3-3.3-0.5L3468,232.6c1.1,1.1,2.2,2.2,2.7,3.6l82.2-26.3v3l-81.4,26c0.3,0.5,0.3,1.1,0.3,1.6
	c0,3-1.4,5.7-3.6,7.4l79.8,131.1c1.1-0.5,2.5-0.8,3.8-0.8c0.3,0,0.8,0,1.1,0v18.9c-0.3,0-0.8,0-1.1,0c-1.1,0-1.9-0.3-3-0.5
	L3484.2,523c0.8,0.5,1.4,1.1,1.9,1.9l66.9-38.3v3.3l-65.6,37.8c0.5,1.1,0.8,2.2,0.8,3.6c0,3.3-1.9,6.3-4.4,7.9l65.3,139
	C3550,677.9,3550.8,677.6,3551.9,677.6z M3298.9,599.3l170.2-66c-0.3-0.8-0.3-1.4-0.3-2.2c0-2.2,0.8-4.1,1.9-5.7l-90.4-88.4
	l-10.4-10.1c-1.6,1.1-3.6,1.9-5.7,1.9c-0.8,0-1.4,0-2.2-0.3l-66.7,167.2C3297,596.6,3298.1,597.7,3298.9,599.3z M3543.4,383.7
	l-237.7-147c-0.8,1.1-1.9,1.9-3,2.5l59.8,170.8c0.5-0.3,1.4-0.3,1.9-0.3c4.1,0,7.6,2.7,9,6.6l169.1-28.5
	C3542.3,386.4,3542.9,385,3543.4,383.7z M2761,238.9c0.3,0.5,0.3,1.1,0.3,1.6c0,3-1.4,5.7-3.6,7.4l79.8,131.1
	c1.1-0.5,2.5-0.8,3.8-0.8c0.3,0,0.8,0,1.1,0l46.2-173.8c-2.2-0.8-3.8-2.5-4.9-4.7l-41.2,13.1v0L2761,238.9z M2050.4,238.9
	c0.3,0.5,0.3,1.1,0.3,1.6c0,3-1.4,5.7-3.6,7.4l79.8,131.1c1.1-0.5,2.5-0.8,3.8-0.8c0.3,0,0.8,0,1.1,0l46.2-173.8
	c-2.2-0.8-3.8-2.5-4.9-4.7l-41.2,13.1v0L2050.4,238.9z M1339.8,238.9c0.3,0.5,0.3,1.1,0.3,1.6c0,3-1.4,5.7-3.6,7.4l79.8,131.1
	c1.1-0.5,2.5-0.8,3.8-0.8c0.3,0,0.8,0,1.1,0l46.2-173.8c-2.2-0.8-3.8-2.5-4.9-4.7l-41.2,13.1v0L1339.8,238.9z M629.2,238.9
	c0.3,0.5,0.3,1.1,0.3,1.6c0,3-1.4,5.7-3.6,7.4L705.7,379c1.1-0.5,2.5-0.8,3.8-0.8c0.3,0,0.8,0,1.1,0l46.2-173.8
	c-2.2-0.8-3.8-2.5-4.9-4.7l-41.2,13.1v0L629.2,238.9z M68.6,455.1c0,0.8-0.3,1.4-0.3,1.9l123.2,35.8c1.6-3.6,4.9-5.7,8.7-5.7
	c0.5,0,1.4,0.3,1.9,0.3l60.1-164.5c-0.8-0.5-1.6-1.1-2.5-1.9L67.5,450.2C68.3,451.8,68.8,453.5,68.6,455.1z M60.1,465l18.6,145.6
	c1.9,0,3.8,0.8,5.5,1.9l98.4-99.3l10.4-10.4c-1.1-1.6-1.9-3.6-1.9-5.7c0-0.5,0-0.8,0-1.4L67.8,459.8C66.4,462.5,63.7,464.4,60.1,465
	z M204.9,488.5c1.1,0.5,1.9,1.4,2.7,2.2l189.1-123.4c-0.5-1.4-0.8-2.7-1.1-4.1c0-0.8,0.3-1.4,0.3-1.9l-120.5-42.1
	c-1.6,3-4.9,5.2-8.5,5.2c-0.5,0-1.4-0.3-1.9-0.3L204.9,488.5z M209,501.3L310.4,578c1.9-1.6,4.1-2.7,6.8-2.7c0.8,0,1.4,0,2.2,0
	l81.4-204.2c-1.1-0.5-1.6-1.1-2.5-1.9L209.3,492.6c0.5,1.4,0.8,2.7,0.8,4.1C210.1,498.3,209.8,500,209,501.3z M276.5,316.6l27.6,9.6
	l92.9,32.6c1.6-3,4.9-5.2,8.5-5.2c0.8,0,1.6,0,2.2,0.3l43.7-114.7c-1.4-0.8-2.5-1.9-3-3.3l-171.8,76.4c0,0.8,0.3,1.6,0.3,2.5
	C276.8,315.5,276.5,316.1,276.5,316.6z M410.4,354.9c3,1.6,4.9,4.7,4.9,8.2c0,0.8-0.3,1.9-0.5,2.7l99.4,47.9c0.8-1.1,2.2-2.2,3.6-3
	L457.9,240c-0.5,0.3-1.4,0.3-1.9,0.3c-0.8,0-1.4,0-1.9,0L410.4,354.9z M520.2,409.9c0.5-0.3,1.4-0.3,1.9-0.3c4.1,0,7.6,2.7,9,6.6
	l169.1-28.5c-0.3-1.4,0.3-2.7,0.8-4.1l-237.7-147c-0.8,1.1-1.9,1.9-3,2.5L520.2,409.9z M702.4,381.5c0.3-0.3,0.5-0.8,1.1-1.1
	L623.7,249c-1.1,0.5-2.5,0.8-3.8,0.8c-5.2,0-9-3.8-9.6-8.8l-145.1-8.5c0,0.5-0.3,1.4-0.5,1.9L702.4,381.5z M713.3,378.5
	c0.8,0.3,1.4,0.8,1.9,1.1l170.5-178.4c-1.1-1.1-1.6-2.7-1.9-4.4H770.2c-0.5,4.7-4.4,8.2-9.3,8.2c-0.3,0-0.8,0-1.1,0L713.3,378.5z
	 M717.2,381.8c0.5,0.8,1.1,1.4,1.4,2.2L968,315.8c0-0.3,0-0.8,0-1.1c0-2.7,1.1-5.2,3-6.8l-73.2-103.7c-1.4,0.5-2.7,1.1-4.4,1.1
	c-1.9,0-3.8-0.8-5.5-1.9L717.2,381.8z M970.4,321L778.1,450.2c0.8,1.6,1.4,3.3,1.1,4.9c0,0.8-0.3,1.4-0.3,1.9l123.2,35.8
	c1.6-3.6,4.9-5.7,8.7-5.7c0.5,0,1.4,0.3,1.9,0.3l60.1-164.5C972.1,322.4,971.2,321.8,970.4,321z M770.7,465l18.6,145.6
	c1.9,0,3.8,0.8,5.5,1.9l98.4-99.3l10.4-10.4c-1.1-1.6-1.9-3.6-1.9-5.7c0-0.5,0-0.8,0-1.4l-123.2-35.8
	C777,462.5,774.3,464.4,770.7,465z M915.5,488.5c1.1,0.5,1.9,1.4,2.7,2.2l189.1-123.4c-0.5-1.4-0.8-2.7-1.1-4.1
	c0-0.8,0.3-1.4,0.3-1.9L986,319.1c-1.6,3-4.9,5.2-8.5,5.2c-0.5,0-1.4-0.3-1.9-0.3L915.5,488.5z M919.6,501.3L1021,578
	c1.9-1.6,4.1-2.7,6.8-2.7c0.8,0,1.4,0,2.2,0l81.4-204.2c-1.1-0.5-1.6-1.1-2.5-1.9L919.9,492.6c0.5,1.4,0.8,2.7,0.8,4.1
	C920.7,498.3,920.4,500,919.6,501.3z M987.1,316.6l27.6,9.6l92.9,32.6c1.6-3,4.9-5.2,8.5-5.2c0.8,0,1.6,0,2.2,0.3l43.7-114.7
	c-1.4-0.8-2.5-1.9-3-3.3l-171.8,76.4c0,0.8,0.3,1.6,0.3,2.5C987.4,315.5,987.1,316.1,987.1,316.6z M1120.9,354.9
	c3,1.6,4.9,4.7,4.9,8.2c0,0.8-0.3,1.9-0.5,2.7l99.4,47.9c0.8-1.1,2.2-2.2,3.6-3L1168.5,240c-0.5,0.3-1.4,0.3-1.9,0.3
	c-0.8,0-1.4,0-1.9,0L1120.9,354.9z M1230.8,409.9c0.5-0.3,1.4-0.3,1.9-0.3c4.1,0,7.6,2.7,9,6.6l169.1-28.5c-0.3-1.4,0.3-2.7,0.8-4.1
	l-237.7-147c-0.8,1.1-1.9,1.9-3,2.5L1230.8,409.9z M1413,381.5c0.3-0.3,0.5-0.8,1.1-1.1L1334.3,249c-1.1,0.5-2.5,0.8-3.8,0.8
	c-5.2,0-9-3.8-9.6-8.8l-145.1-8.5c0,0.5-0.3,1.4-0.5,1.9L1413,381.5z M1423.9,378.5c0.8,0.3,1.4,0.8,1.9,1.1l170.5-178.4
	c-1.1-1.1-1.6-2.7-1.9-4.4h-113.7c-0.5,4.7-4.4,8.2-9.3,8.2c-0.3,0-0.8,0-1.1,0L1423.9,378.5z M1427.8,381.8
	c0.5,0.8,1.1,1.4,1.4,2.2l249.4-68.1c0-0.3,0-0.8,0-1.1c0-2.7,1.1-5.2,3-6.8l-73.2-103.7c-1.4,0.5-2.7,1.1-4.4,1.1
	c-1.9,0-3.8-0.8-5.5-1.9L1427.8,381.8z M1681,321l-192.3,129.2c0.8,1.6,1.4,3.3,1.1,4.9c0,0.8-0.3,1.4-0.3,1.9l123.2,35.8
	c1.6-3.6,4.9-5.7,8.7-5.7c0.5,0,1.4,0.3,1.9,0.3l60.1-164.5C1682.7,322.4,1681.8,321.8,1681,321z M1481.3,465l18.6,145.6
	c1.9,0,3.8,0.8,5.5,1.9l98.4-99.3l10.4-10.4c-1.1-1.6-1.9-3.6-1.9-5.7c0-0.5,0-0.8,0-1.4L1489,459.8
	C1487.6,462.5,1484.9,464.4,1481.3,465z M1626.1,488.5c1.1,0.5,1.9,1.4,2.7,2.2l189.1-123.4c-0.5-1.4-0.8-2.7-1.1-4.1
	c0-0.8,0.3-1.4,0.3-1.9l-120.5-42.1c-1.6,3-4.9,5.2-8.5,5.2c-0.5,0-1.4-0.3-1.9-0.3L1626.1,488.5z M1630.2,501.3l101.4,76.6
	c1.9-1.6,4.1-2.7,6.8-2.7c0.8,0,1.4,0,2.2,0l81.4-204.2c-1.1-0.5-1.6-1.1-2.5-1.9l-189.1,123.4c0.5,1.4,0.8,2.7,0.8,4.1
	C1631.3,498.3,1631,500,1630.2,501.3z M1697.7,316.6l27.6,9.6l92.9,32.6c1.6-3,4.9-5.2,8.5-5.2c0.8,0,1.6,0,2.2,0.3l43.7-114.7
	c-1.4-0.8-2.5-1.9-3-3.3l-171.8,76.4c0,0.8,0.3,1.6,0.3,2.5C1698,315.5,1697.7,316.1,1697.7,316.6z M1831.6,354.9
	c3,1.6,4.9,4.7,4.9,8.2c0,0.8-0.3,1.9-0.5,2.7l99.4,47.9c0.8-1.1,2.2-2.2,3.6-3L1879.1,240c-0.5,0.3-1.4,0.3-1.9,0.3
	c-0.8,0-1.4,0-1.9,0L1831.6,354.9z M1941.4,409.9c0.5-0.3,1.4-0.3,1.9-0.3c4.1,0,7.6,2.7,9,6.6l169.1-28.5c-0.3-1.4,0.3-2.7,0.8-4.1
	l-237.7-147c-0.8,1.1-1.9,1.9-3,2.5L1941.4,409.9z M2123.6,381.5c0.3-0.3,0.5-0.8,1.1-1.1L2044.9,249c-1.1,0.5-2.5,0.8-3.8,0.8
	c-5.2,0-9-3.8-9.6-8.8l-145.1-8.5c0,0.5-0.3,1.4-0.5,1.9L2123.6,381.5z M2134.5,378.5c0.8,0.3,1.4,0.8,1.9,1.1l170.5-178.4
	c-1.1-1.1-1.6-2.7-1.9-4.4h-113.7c-0.5,4.7-4.4,8.2-9.3,8.2c-0.3,0-0.8,0-1.1,0L2134.5,378.5z M2138.4,381.8
	c0.5,0.8,1.1,1.4,1.4,2.2l249.4-68.1c0-0.3,0-0.8,0-1.1c0-2.7,1.1-5.2,3-6.8l-73.2-103.7c-1.4,0.5-2.7,1.1-4.4,1.1
	c-1.9,0-3.8-0.8-5.5-1.9L2138.4,381.8z M2391.6,321l-192.3,129.2c0.8,1.6,1.4,3.3,1.1,4.9c0,0.8-0.3,1.4-0.3,1.9l123.2,35.8
	c1.6-3.6,4.9-5.7,8.7-5.7c0.5,0,1.4,0.3,1.9,0.3l60.1-164.5C2393.3,322.4,2392.4,321.8,2391.6,321z M2191.9,465l18.6,145.6
	c1.9,0,3.8,0.8,5.5,1.9l98.4-99.3l10.4-10.4c-1.1-1.6-1.9-3.6-1.9-5.7c0-0.5,0-0.8,0-1.4l-123.2-35.8
	C2198.2,462.5,2195.5,464.4,2191.9,465z M2336.7,488.5c1.1,0.5,1.9,1.4,2.7,2.2l189.1-123.4c-0.5-1.4-0.8-2.7-1.1-4.1
	c0-0.8,0.3-1.4,0.3-1.9l-120.5-42.1c-1.6,3-4.9,5.2-8.5,5.2c-0.5,0-1.4-0.3-1.9-0.3L2336.7,488.5z M2340.8,501.3l101.4,76.6
	c1.9-1.6,4.1-2.7,6.8-2.7c0.8,0,1.4,0,2.2,0l81.4-204.2c-1.1-0.5-1.6-1.1-2.5-1.9l-189.1,123.4c0.5,1.4,0.8,2.7,0.8,4.1
	C2341.9,498.3,2341.6,500,2340.8,501.3z M2408.3,316.6l27.6,9.6l92.9,32.6c1.6-3,4.9-5.2,8.5-5.2c0.8,0,1.6,0,2.2,0.3l43.7-114.7
	c-1.4-0.8-2.5-1.9-3-3.3l-171.8,76.4c0,0.8,0.3,1.6,0.3,2.5C2408.6,315.5,2408.3,316.1,2408.3,316.6z M2542.1,354.9
	c3,1.6,4.9,4.7,4.9,8.2c0,0.8-0.3,1.9-0.5,2.7l99.4,47.9c0.8-1.1,2.2-2.2,3.6-3L2589.7,240c-0.5,0.3-1.4,0.3-1.9,0.3
	c-0.8,0-1.4,0-1.9,0L2542.1,354.9z M2652,409.9c0.5-0.3,1.4-0.3,1.9-0.3c4.1,0,7.6,2.7,9,6.6l169.1-28.5c-0.3-1.4,0.3-2.7,0.8-4.1
	l-237.7-147c-0.8,1.1-1.9,1.9-3,2.5L2652,409.9z M2834.2,381.5c0.3-0.3,0.5-0.8,1.1-1.1L2755.5,249c-1.1,0.5-2.5,0.8-3.8,0.8
	c-5.2,0-9-3.8-9.6-8.8l-145.1-8.5c0,0.5-0.3,1.4-0.5,1.9L2834.2,381.5z M2845.1,378.5c0.8,0.3,1.4,0.8,1.9,1.1l170.5-178.4
	c-1.1-1.1-1.6-2.7-1.9-4.4H2902c-0.5,4.7-4.4,8.2-9.3,8.2c-0.3,0-0.8,0-1.1,0L2845.1,378.5z M2849,381.8c0.5,0.8,1.1,1.4,1.4,2.2
	l249.4-68.1c0-0.3,0-0.8,0-1.1c0-2.7,1.1-5.2,3-6.8l-73.2-103.7c-1.4,0.5-2.7,1.1-4.4,1.1c-1.9,0-3.8-0.8-5.5-1.9L2849,381.8z
	 M3102.2,321l-192.3,129.2c0.8,1.6,1.4,3.3,1.1,4.9c0,0.8-0.3,1.4-0.3,1.9l123.2,35.8c1.6-3.6,4.9-5.7,8.7-5.7
	c0.5,0,1.4,0.3,1.9,0.3l60.1-164.5C3103.9,322.4,3103,321.8,3102.2,321z M2902.5,465l18.6,145.6c1.9,0,3.8,0.8,5.5,1.9l98.4-99.3
	l10.4-10.4c-1.1-1.6-1.9-3.6-1.9-5.7c0-0.5,0-0.8,0-1.4l-123.2-35.8C2908.8,462.5,2906.1,464.4,2902.5,465z M3047.3,488.5
	c1.1,0.5,1.9,1.4,2.7,2.2l189.1-123.4c-0.5-1.4-0.8-2.7-1.1-4.1c0-0.8,0.3-1.4,0.3-1.9l-120.5-42.1c-1.6,3-4.9,5.2-8.5,5.2
	c-0.5,0-1.4-0.3-1.9-0.3L3047.3,488.5z M3051.4,501.3l101.4,76.6c1.9-1.6,4.1-2.7,6.8-2.7c0.8,0,1.4,0,2.2,0l81.4-204.2
	c-1.1-0.5-1.6-1.1-2.5-1.9l-189.1,123.4c0.5,1.4,0.8,2.7,0.8,4.1C3052.5,498.3,3052.2,500,3051.4,501.3z M3118.9,316.6l27.6,9.6
	l92.9,32.6c1.6-3,4.9-5.2,8.5-5.2c0.8,0,1.6,0,2.2,0.3l43.7-114.7c-1.4-0.8-2.5-1.9-3-3.3l-171.8,76.4c0,0.8,0.3,1.6,0.3,2.5
	C3119.2,315.5,3118.9,316.1,3118.9,316.6z M3252.8,354.9c3,1.6,4.9,4.7,4.9,8.2c0,0.8-0.3,1.9-0.5,2.7l99.4,47.9
	c0.8-1.1,2.2-2.2,3.6-3L3300.3,240c-0.5,0.3-1.4,0.3-1.9,0.3c-0.8,0-1.4,0-1.9,0L3252.8,354.9z M3290.7,594.4c0.8,0,1.4,0,2.2,0
	l66.7-167.2c-3-1.6-4.9-4.7-4.9-8.2c0-0.8,0.3-1.9,0.5-2.7l-99.4-47.9c-1.1,1.9-3,3.3-4.9,3.8L3290.7,594.4z M3287.7,594.9
	l-39.6-222.2h-0.3c-0.8,0-1.4,0-2.2-0.3l-81.4,204.2c3,1.6,4.9,4.7,4.9,8.2l112.6,16.4C3282.5,598.2,3284.7,596,3287.7,594.9z
	 M3106.9,703.9l174.6-96.3c-0.3-1.1-0.5-2.2-0.5-3.3l-112.6-16.4c-1.1,3.8-4.6,6.8-9,6.8c-0.8,0-1.9-0.3-2.7-0.5l-51.9,108.1
	C3105.5,702.5,3106.3,703.3,3106.9,703.9z M3099.8,700.6c1.1,0,1.9,0.3,3,0.5l51.9-108.4c-2.7-1.6-4.4-4.7-4.4-7.9
	c0-1.6,0.3-3.3,1.1-4.7L3050,503.5c-1.9,1.6-4.1,2.7-6.8,2.7c-2.2,0-4.1-0.8-5.7-1.9l-108.7,109.7c1.1,1.6,1.9,3.6,1.9,5.7
	c0,1.1-0.3,2.2-0.5,3l162.3,81.3C3094.3,701.9,3096.8,700.6,3099.8,700.6z M2851.1,686.3l239.6,21.1c0-0.3,0.3-0.5,0.3-0.8
	l-162.3-81c-1.9,2.5-4.6,4.1-7.9,4.1c-2.5,0-4.6-1.1-6.3-2.5l-64.8,54.7C2850.6,683.1,2851.1,684.7,2851.1,686.3z M2845.4,678.1
	c1.1,0.3,1.9,0.8,2.7,1.6l64.8-54.7c-0.8-1.4-1.4-3-1.4-4.9c0-4.4,3-8.2,7.1-9.3L2900,464.7c-0.3,0-0.5-0.3-0.8-0.3L2845.4,678.1z
	 M2895.7,448.3c1.6-1.6,3.8-2.5,6.3-2.5c2.5,0,4.6,0.8,6.3,2.5l192.6-129.4c-0.3,0-0.3-0.3-0.3-0.3l-249.4,68.1c0,0.3,0,0.8,0.3,1.1
	c0,2.5-1.1,4.7-2.5,6.3L2895.7,448.3z M2775.5,524.9l66.9-38.3v0.3l50-28.7c-0.3-0.8-0.5-1.9-0.5-2.7c0-1.9,0.8-3.8,1.6-5.2
	l-47-54.5c-1.4,1.1-2.7,1.4-4.1,1.6v-0.3c-0.3,0-0.8,0-1.1,0c-1.1,0-1.9-0.3-3-0.5L2773.6,523
	C2774.4,523.5,2774.9,524.1,2775.5,524.9z M2836.1,395.2c-1.6-1.1-3-3-3.6-4.9l-169.1,28.5v0.3c0,2.2-0.8,4.1-1.9,5.7l100.8,98.5
	c1.6-1.1,3.6-1.9,5.7-1.9c1.1,0,1.9,0.3,3,0.5L2836.1,395.2z M2589.4,605.6l243.4,77.2c0.8-1.6,1.9-2.7,3.3-3.8l-65.3-139
	c-0.8,0.3-1.6,0.5-2.7,0.5c-3.6,0-6.6-1.9-8.2-4.9l-170.5,66.2c0.3,0.8,0.3,1.4,0.3,2.2C2589.7,604.5,2589.4,605.1,2589.4,605.6z
	 M2588.3,599.3l170.2-66c-0.3-0.8-0.3-1.4-0.3-2.2c0-2.2,0.8-4.1,1.9-5.7l-90.4-88.4l-10.4-10.1c-1.6,1.1-3.6,1.9-5.7,1.9
	c-0.8,0-1.4,0-2.2-0.3l-66.7,167.2C2586.4,596.6,2587.5,597.7,2588.3,599.3z M2580.1,594.4c0.8,0,1.4,0,2.2,0l66.7-167.2
	c-3-1.6-4.9-4.7-4.9-8.2c0-0.8,0.3-1.9,0.5-2.7l-99.4-47.9c-1.1,1.9-3,3.3-4.9,3.8L2580.1,594.4z M2577.1,594.9l-39.6-222.2h-0.3
	c-0.8,0-1.4,0-2.2-0.3l-81.4,204.2c3,1.6,4.9,4.7,4.9,8.2l112.6,16.4C2571.9,598.2,2574.1,596,2577.1,594.9z M2396.3,703.9
	l174.6-96.3c-0.3-1.1-0.5-2.2-0.5-3.3l-112.6-16.4c-1.1,3.8-4.6,6.8-9,6.8c-0.8,0-1.9-0.3-2.7-0.5l-51.9,108.1
	C2394.9,702.5,2395.7,703.3,2396.3,703.9z M2389.2,700.6c1.1,0,1.9,0.3,3,0.5l51.9-108.4c-2.7-1.6-4.4-4.7-4.4-7.9
	c0-1.6,0.3-3.3,1.1-4.7l-101.4-76.6c-1.9,1.6-4.1,2.7-6.8,2.7c-2.2,0-4.1-0.8-5.7-1.9l-108.7,109.7c1.1,1.6,1.9,3.6,1.9,5.7
	c0,1.1-0.3,2.2-0.5,3l162.3,81.3C2383.7,701.9,2386.2,700.6,2389.2,700.6z M2140.5,686.3l239.6,21.1c0-0.3,0.3-0.5,0.3-0.8
	l-162.3-81c-1.9,2.5-4.6,4.1-7.9,4.1c-2.5,0-4.6-1.1-6.3-2.5l-64.8,54.7C2140,683.1,2140.5,684.7,2140.5,686.3z M2134.8,678.1
	c1.1,0.3,1.9,0.8,2.7,1.6l64.8-54.7c-0.8-1.4-1.4-3-1.4-4.9c0-4.4,3-8.2,7.1-9.3l-18.6-146.1c-0.3,0-0.5-0.3-0.8-0.3L2134.8,678.1z
	 M2185.1,448.3c1.6-1.6,3.8-2.5,6.3-2.5c2.5,0,4.6,0.8,6.3,2.5l192.6-129.4c-0.3,0-0.3-0.3-0.3-0.3l-249.4,68.1c0,0.3,0,0.8,0.3,1.1
	c0,2.5-1.1,4.7-2.5,6.3L2185.1,448.3z M2064.9,524.9l66.9-38.3v0.3l50-28.7c-0.3-0.8-0.5-1.9-0.5-2.7c0-1.9,0.8-3.8,1.6-5.2
	l-47-54.5c-1.4,1.1-2.7,1.4-4.1,1.6v-0.3c-0.3,0-0.8,0-1.1,0c-1.1,0-1.9-0.3-3-0.5L2063,523C2063.8,523.5,2064.3,524.1,2064.9,524.9
	z M2125.5,395.2c-1.6-1.1-3-3-3.6-4.9l-169.1,28.5v0.3c0,2.2-0.8,4.1-1.9,5.7l100.8,98.5c1.6-1.1,3.6-1.9,5.7-1.9
	c1.1,0,1.9,0.3,3,0.5L2125.5,395.2z M1878.8,605.6l243.4,77.2c0.8-1.6,1.9-2.7,3.3-3.8l-65.3-139c-0.8,0.3-1.6,0.5-2.7,0.5
	c-3.6,0-6.6-1.9-8.2-4.9l-170.5,66.2c0.3,0.8,0.3,1.4,0.3,2.2C1879.1,604.5,1878.8,605.1,1878.8,605.6z M1877.7,599.3l170.2-66
	c-0.3-0.8-0.3-1.4-0.3-2.2c0-2.2,0.8-4.1,1.9-5.7l-90.4-88.4l-10.4-10.1c-1.6,1.1-3.6,1.9-5.7,1.9c-0.8,0-1.4,0-2.2-0.3l-66.7,167.2
	C1875.8,596.6,1876.9,597.7,1877.7,599.3z M1869.5,594.4c0.8,0,1.4,0,2.2,0l66.7-167.2c-3-1.6-4.9-4.7-4.9-8.2
	c0-0.8,0.3-1.9,0.5-2.7l-99.4-47.9c-1.1,1.9-3,3.3-4.9,3.8L1869.5,594.4z M1866.5,594.9l-39.6-222.2h-0.3c-0.8,0-1.4,0-2.2-0.3
	L1743,576.6c3,1.6,4.9,4.7,4.9,8.2l112.6,16.4C1861.3,598.2,1863.5,596,1866.5,594.9z M1685.7,703.9l174.6-96.3
	c-0.3-1.1-0.5-2.2-0.5-3.3l-112.6-16.4c-1.1,3.8-4.6,6.8-9,6.8c-0.8,0-1.9-0.3-2.7-0.5l-51.9,108.1
	C1684.3,702.5,1685.1,703.3,1685.7,703.9z M1678.6,700.6c1.1,0,1.9,0.3,3,0.5l51.9-108.4c-2.7-1.6-4.4-4.7-4.4-7.9
	c0-1.6,0.3-3.3,1.1-4.7l-101.4-76.6c-1.9,1.6-4.1,2.7-6.8,2.7c-2.2,0-4.1-0.8-5.7-1.9l-108.7,109.7c1.1,1.6,1.9,3.6,1.9,5.7
	c0,1.1-0.3,2.2-0.5,3l162.3,81.3C1673.1,701.9,1675.6,700.6,1678.6,700.6z M1429.9,686.3l239.6,21.1c0-0.3,0.3-0.5,0.3-0.8
	l-162.3-81c-1.9,2.5-4.6,4.1-7.9,4.1c-2.5,0-4.6-1.1-6.3-2.5l-64.8,54.7C1429.4,683.1,1429.9,684.7,1429.9,686.3z M1424.2,678.1
	c1.1,0.3,1.9,0.8,2.7,1.6l64.8-54.7c-0.8-1.4-1.4-3-1.4-4.9c0-4.4,3-8.2,7.1-9.3l-18.6-146.1c-0.3,0-0.5-0.3-0.8-0.3L1424.2,678.1z
	 M1474.5,448.3c1.6-1.6,3.8-2.5,6.3-2.5c2.5,0,4.6,0.8,6.3,2.5l192.6-129.4c-0.3,0-0.3-0.3-0.3-0.3l-249.4,68.1c0,0.3,0,0.8,0.3,1.1
	c0,2.5-1.1,4.7-2.5,6.3L1474.5,448.3z M1354.3,524.9l66.9-38.3v0.3l50-28.7c-0.3-0.8-0.5-1.9-0.5-2.7c0-1.9,0.8-3.8,1.6-5.2
	l-47-54.5c-1.4,1.1-2.7,1.4-4.1,1.6v-0.3c-0.3,0-0.8,0-1.1,0c-1.1,0-1.9-0.3-3-0.5L1352.4,523
	C1353.2,523.5,1353.7,524.1,1354.3,524.9z M1414.9,395.2c-1.6-1.1-3-3-3.6-4.9l-169.1,28.5v0.3c0,2.2-0.8,4.1-1.9,5.7l100.8,98.5
	c1.6-1.1,3.6-1.9,5.7-1.9c1.1,0,1.9,0.3,3,0.5L1414.9,395.2z M1168.2,605.6l243.4,77.2c0.8-1.6,1.9-2.7,3.3-3.8l-65.3-139
	c-0.8,0.3-1.6,0.5-2.7,0.5c-3.6,0-6.6-1.9-8.2-4.9l-170.5,66.2c0.3,0.8,0.3,1.4,0.3,2.2C1168.5,604.5,1168.2,605.1,1168.2,605.6z
	 M1167.1,599.3l170.2-66c-0.3-0.8-0.3-1.4-0.3-2.2c0-2.2,0.8-4.1,1.9-5.7l-90.4-88.4l-10.4-10.1c-1.6,1.1-3.6,1.9-5.7,1.9
	c-0.8,0-1.4,0-2.2-0.3l-66.7,167.2C1165.2,596.6,1166.3,597.7,1167.1,599.3z M1158.9,594.4c0.8,0,1.4,0,2.2,0l66.7-167.2
	c-3-1.6-4.9-4.7-4.9-8.2c0-0.8,0.3-1.9,0.5-2.7l-99.4-47.9c-1.1,1.9-3,3.3-4.9,3.8L1158.9,594.4z M1155.9,594.9l-39.6-222.2h-0.3
	c-0.8,0-1.4,0-2.2-0.3l-81.4,204.2c3,1.6,4.9,4.7,4.9,8.2l112.6,16.4C1150.7,598.2,1152.9,596,1155.9,594.9z M975.1,703.9
	l174.6-96.3c-0.3-1.1-0.5-2.2-0.5-3.3l-112.6-16.4c-1.1,3.8-4.6,6.8-9,6.8c-0.8,0-1.9-0.3-2.7-0.5l-51.9,108.1
	C973.7,702.5,974.5,703.3,975.1,703.9z M968,700.6c1.1,0,1.9,0.3,3,0.5l51.9-108.4c-2.7-1.6-4.4-4.7-4.4-7.9c0-1.6,0.3-3.3,1.1-4.7
	l-101.4-76.6c-1.9,1.6-4.1,2.7-6.8,2.7c-2.2,0-4.1-0.8-5.7-1.9L796.9,614.1c1.1,1.6,1.9,3.6,1.9,5.7c0,1.1-0.3,2.2-0.5,3l162.3,81.3
	C962.5,701.9,965,700.6,968,700.6z M719.3,686.3l239.6,21.1c0-0.3,0.3-0.5,0.3-0.8l-162.3-81c-1.9,2.5-4.6,4.1-7.9,4.1
	c-2.5,0-4.6-1.1-6.3-2.5L718,682C718.8,683.1,719.3,684.7,719.3,686.3z M713.6,678.1c1.1,0.3,1.9,0.8,2.7,1.6l64.8-54.7
	c-0.8-1.4-1.4-3-1.4-4.9c0-4.4,3-8.2,7.1-9.3l-18.6-146.1c-0.3,0-0.5-0.3-0.8-0.3L713.6,678.1z M763.9,448.3
	c1.6-1.6,3.8-2.5,6.3-2.5c2.5,0,4.6,0.8,6.3,2.5L969,318.8c-0.3,0-0.3-0.3-0.3-0.3l-249.4,68.1c0,0.3,0,0.8,0.3,1.1
	c0,2.5-1.1,4.7-2.5,6.3L763.9,448.3z M643.7,524.9l66.9-38.3v0.3l50-28.7c-0.3-0.8-0.5-1.9-0.5-2.7c0-1.9,0.8-3.8,1.6-5.2l-47-54.5
	c-1.4,1.1-2.7,1.4-4.1,1.6v-0.3c-0.3,0-0.8,0-1.1,0c-1.1,0-1.9-0.3-3-0.5L641.8,523C642.6,523.5,643.1,524.1,643.7,524.9z
	 M704.3,395.2c-1.6-1.1-3-3-3.6-4.9l-169.1,28.5v0.3c0,2.2-0.8,4.1-1.9,5.7l100.8,98.5c1.6-1.1,3.6-1.9,5.7-1.9c1.1,0,1.9,0.3,3,0.5
	L704.3,395.2z M457.6,605.6L701,682.8c0.8-1.6,1.9-2.7,3.3-3.8l-65.3-139c-0.8,0.3-1.6,0.5-2.7,0.5c-3.6,0-6.6-1.9-8.2-4.9
	l-170.5,66.2c0.3,0.8,0.3,1.4,0.3,2.2C457.9,604.5,457.6,605.1,457.6,605.6z M456.5,599.3l170.2-66c-0.3-0.8-0.3-1.4-0.3-2.2
	c0-2.2,0.8-4.1,1.9-5.7L537.9,437l-10.4-10.1c-1.6,1.1-3.6,1.9-5.7,1.9c-0.8,0-1.4,0-2.2-0.3L453,595.8
	C454.6,596.6,455.7,597.7,456.5,599.3z M448.3,594.4c0.8,0,1.4,0,2.2,0l66.7-167.2c-3-1.6-4.9-4.7-4.9-8.2c0-0.8,0.3-1.9,0.5-2.7
	l-99.4-47.9c-1.1,1.9-3,3.3-4.9,3.8L448.3,594.4z M445.3,594.9l-39.6-222.2h-0.3c-0.8,0-1.4,0-2.2-0.3l-81.4,204.2
	c3,1.6,4.9,4.7,4.9,8.2l112.6,16.4C440.1,598.2,442.3,596,445.3,594.9z M264.5,703.9L439,607.5c-0.3-1.1-0.5-2.2-0.5-3.3
	l-112.6-16.4c-1.1,3.8-4.6,6.8-9,6.8c-0.8,0-1.9-0.3-2.7-0.5l-51.9,108.1C263.1,702.5,263.9,703.3,264.5,703.9z M257.4,700.6
	c1.1,0,1.9,0.3,3,0.5l51.9-108.4c-2.7-1.6-4.4-4.7-4.4-7.9c0-1.6,0.3-3.3,1.1-4.7l-101.4-76.6c-1.9,1.6-4.1,2.7-6.8,2.7
	c-2.2,0-4.1-0.8-5.7-1.9L86.3,614.1c1.1,1.6,1.9,3.6,1.9,5.7c0,1.1-0.3,2.2-0.5,3L250,704.1C251.9,701.9,254.4,700.6,257.4,700.6z
	 M8.7,686.3l239.6,21.1c0-0.3,0.3-0.5,0.3-0.8l-162.3-81c-1.9,2.5-4.6,4.1-7.9,4.1c-2.5,0-4.6-1.1-6.3-2.5L7.4,682
	C8.2,683.1,8.7,684.7,8.7,686.3z M3,678.1c1.1,0.3,1.9,0.8,2.7,1.6L70.5,625c-0.8-1.4-1.4-3-1.4-4.9c0-4.4,3-8.2,7.1-9.3L57.6,464.7
	c-0.3,0-0.5-0.3-0.8-0.3L3,678.1z M53.3,448.3c1.6-1.6,3.8-2.5,6.3-2.5c2.5,0,4.6,0.8,6.3,2.5l192.6-129.4c-0.3,0-0.3-0.3-0.3-0.3
	L8.7,386.7c0,0.3,0,0.8,0.3,1.1c0,2.5-1.1,4.7-2.5,6.3L53.3,448.3z M7.9,383.9l249.4-68.1c0-0.3,0-0.8,0-1.1c0-2.7,1.1-5.2,3-6.8
	l-73.2-103.7c-1.4,0.5-2.7,1.1-4.4,1.1c-1.9,0-3.8-0.8-5.5-1.9L6.6,381.8C7.1,382.6,7.6,383.1,7.9,383.9z M2.7,378.5
	c0.8,0.3,1.4,0.8,1.9,1.1l170.5-178.4c-1.1-1.1-1.6-2.7-1.9-4.4H59.6c-0.5,4.7-4.4,8.2-9.3,8.2c-0.3,0-0.8,0-1.1,0L2.7,378.5z
	 M6.6,82.9c-0.5,0.8-1.4,1.4-2.2,1.9l43.7,101.5c0.8,0,1.6-0.3,2.5-0.3c4.6,0,8.7,3.6,9.3,8.2h113.7c0.3-1.1,0.5-1.9,0.8-2.7
	L6.6,82.9z M130,49.3c-0.5,0.3-1.4,0.3-1.9,0.3c-3.8,0-7.4-2.5-8.7-5.7l-24,6.8L8.7,75.3c0,0.5,0,0.8,0,1.4c0,1.6-0.3,3-0.8,4.1
	l167.7,108.6c0.8-0.8,1.6-1.6,2.7-2.2L130,49.3z M251.6,1.9L137.4,38.3c0.3,0.5,0.3,1.1,0.3,1.6c0,3.8-2.2,6.8-5.2,8.5l48.4,137.9
	c0.5-0.3,1.4-0.3,1.9-0.3c0.8,0,1.4,0,2.2,0.3L255.4,6C253.8,5.2,252.4,3.6,251.6,1.9z M267.5,4.4c-1.6,1.9-4.4,3.3-7.1,3.3
	c-0.8,0-1.4,0-2.2-0.3l-70.5,180.3c1.4,0.5,2.5,1.6,3.3,3l206.5-94.7c-0.3-0.8-0.5-1.9-0.5-2.7c0-1.6,0.3-3,0.8-4.1L267.5,4.4z
	 M398.6,98.2l-206.5,94.7c0.3,0.8,0.5,1.9,0.5,2.7c0,2.7-1.1,5.2-3,6.8l73.2,103.7c1.4-0.5,2.7-1.1,4.4-1.1c1.4,0,2.7,0.3,3.8,0.8
	l129.2-205.5C399.4,99.9,398.9,99.1,398.6,98.2z M407.9,102.3c-0.5,0.3-1.4,0.3-1.9,0.3c-1.4,0-2.7-0.3-3.8-0.8L272.9,307.3
	c0.8,0.5,1.4,1.4,1.9,2.2l171.8-76.3c0-0.8-0.3-1.6-0.3-2.5c0-3.6,2.2-6.8,4.6-8.5L407.9,102.3z M564.7,3.8L415.3,89.5
	c0.5,1.1,0.8,2.2,0.8,3.6c0,3.8-2.2,6.8-5.2,8.5l43.2,119.9c0.5-0.3,1.4-0.3,1.9-0.3c1.1,0,2.2,0.3,3,0.5L566.6,5.7
	C566.1,5.2,565.3,4.7,564.7,3.8z M572.1,7.4c-1.1,0-1.9-0.3-3-0.5L461.4,222.8c2.5,1.6,3.8,4.1,4.1,7.1l145.1,8.5
	c0.8-3.3,3.3-6,6.3-7.1L572.6,7.4C572.4,7.4,572.4,7.4,572.1,7.4z M699.9,76.6c0-1.4,0.3-2.5,0.8-3.6L579.5,3.8
	c-1.1,1.4-2.7,2.5-4.4,3l44.3,223.9c0.3,0,0.3,0,0.5,0c1.1,0,2.2,0.3,3.3,0.5l80.6-147C701.6,82.4,699.9,79.6,699.9,76.6z
	 M710.6,85.9L710.6,85.9c-0.3,0-0.8,0-1.1,0c-1.1,0-2.2-0.3-3.3-0.5l-80.6,147.2c1.1,1.1,2.2,2.2,2.7,3.6l82.2-26.3v0.3l40.4-12.9
	c-0.3-0.5-0.3-1.1-0.3-1.6c0-3.6,1.9-6.6,4.6-8.2L712,85.7C711.4,85.7,711.1,85.9,710.6,85.9z M717.2,82.9c-0.5,0.8-1.4,1.4-2.2,1.9
	l43.7,101.5c0.8,0,1.6-0.3,2.5-0.3c4.6,0,8.7,3.6,9.3,8.2h113.7c0.3-1.1,0.5-1.9,0.8-2.7L717.2,82.9z M840.6,49.3
	c-0.5,0.3-1.4,0.3-1.9,0.3c-3.8,0-7.4-2.5-8.7-5.7l-24,6.8l-86.6,24.6c0,0.5,0,0.8,0,1.4c0,1.6-0.3,3-0.8,4.1l167.7,108.6
	c0.8-0.8,1.6-1.6,2.7-2.2L840.6,49.3z M962.2,1.9L848,38.3c0.3,0.5,0.3,1.1,0.3,1.6c0,3.8-2.2,6.8-5.2,8.5l48.4,137.9
	c0.5-0.3,1.4-0.3,1.9-0.3c0.8,0,1.4,0,2.2,0.3L966,6C964.4,5.2,963,3.6,962.2,1.9z M978.1,4.4c-1.6,1.9-4.4,3.3-7.1,3.3
	c-0.8,0-1.4,0-2.2-0.3l-70.5,180.3c1.4,0.5,2.5,1.6,3.3,3l206.5-94.7c-0.3-0.8-0.5-1.9-0.5-2.7c0-1.6,0.3-3,0.8-4.1L978.1,4.4z
	 M1109.2,98.2l-206.5,94.7c0.3,0.8,0.5,1.9,0.5,2.7c0,2.7-1.1,5.2-3,6.8l73.2,103.7c1.4-0.5,2.7-1.1,4.4-1.1c1.4,0,2.7,0.3,3.8,0.8
	l129.2-205.5C1110,99.9,1109.5,99.1,1109.2,98.2z M1118.5,102.3c-0.5,0.3-1.4,0.3-1.9,0.3c-1.4,0-2.7-0.3-3.8-0.8L983.5,307.3
	c0.8,0.5,1.4,1.4,1.9,2.2l171.8-76.3c0-0.8-0.3-1.6-0.3-2.5c0-3.6,2.2-6.8,4.6-8.5L1118.5,102.3z M1275.3,3.8l-149.4,85.7
	c0.5,1.1,0.8,2.2,0.8,3.6c0,3.8-2.2,6.8-5.2,8.5l43.2,119.9c0.5-0.3,1.4-0.3,1.9-0.3c1.1,0,2.2,0.3,3,0.5L1277.2,5.7
	C1276.7,5.2,1275.9,4.7,1275.3,3.8z M1282.7,7.4c-1.1,0-1.9-0.3-3-0.5L1172,222.8c2.5,1.6,3.8,4.1,4.1,7.1l145.1,8.5
	c0.8-3.3,3.3-6,6.3-7.1L1283.2,7.4C1283,7.4,1283,7.4,1282.7,7.4z M1410.5,76.6c0-1.4,0.3-2.5,0.8-3.6L1290.1,3.8
	c-1.1,1.4-2.7,2.5-4.4,3l44.3,223.9c0.3,0,0.3,0,0.5,0c1.1,0,2.2,0.3,3.3,0.5l80.6-147C1412.2,82.4,1410.5,79.6,1410.5,76.6z
	 M1421.2,85.9L1421.2,85.9c-0.3,0-0.8,0-1.1,0c-1.1,0-2.2-0.3-3.3-0.5l-80.6,147.2c1.1,1.1,2.2,2.2,2.7,3.6l82.2-26.3v0.3l40.4-12.9
	c-0.3-0.5-0.3-1.1-0.3-1.6c0-3.6,1.9-6.6,4.6-8.2l-43.4-101.8C1422,85.7,1421.7,85.9,1421.2,85.9z M1427.8,82.9
	c-0.5,0.8-1.4,1.4-2.2,1.9l43.7,101.5c0.8,0,1.6-0.3,2.5-0.3c4.6,0,8.7,3.6,9.3,8.2h113.7c0.3-1.1,0.5-1.9,0.8-2.7L1427.8,82.9z
	 M1551.2,49.3c-0.5,0.3-1.4,0.3-1.9,0.3c-3.8,0-7.4-2.5-8.7-5.7l-24,6.8l-86.6,24.6c0,0.5,0,0.8,0,1.4c0,1.6-0.3,3-0.8,4.1
	l167.7,108.6c0.8-0.8,1.6-1.6,2.7-2.2L1551.2,49.3z M1672.8,1.9l-114.2,36.4c0.3,0.5,0.3,1.1,0.3,1.6c0,3.8-2.2,6.8-5.2,8.5
	l48.4,137.9c0.5-0.3,1.4-0.3,1.9-0.3c0.8,0,1.4,0,2.2,0.3L1676.6,6C1675,5.2,1673.6,3.6,1672.8,1.9z M1688.7,4.4
	c-1.6,1.9-4.4,3.3-7.1,3.3c-0.8,0-1.4,0-2.2-0.3l-70.5,180.3c1.4,0.5,2.5,1.6,3.3,3l206.5-94.7c-0.3-0.8-0.5-1.9-0.5-2.7
	c0-1.6,0.3-3,0.8-4.1L1688.7,4.4z M1819.8,98.2l-206.5,94.7c0.3,0.8,0.5,1.9,0.5,2.7c0,2.7-1.1,5.2-3,6.8l73.2,103.7
	c1.4-0.5,2.7-1.1,4.4-1.1c1.4,0,2.7,0.3,3.8,0.8l129.2-205.5C1820.6,99.9,1820.1,99.1,1819.8,98.2z M1829.1,102.3
	c-0.5,0.3-1.4,0.3-1.9,0.3c-1.4,0-2.7-0.3-3.8-0.8l-129.2,205.5c0.8,0.5,1.4,1.4,1.9,2.2l171.8-76.3c0-0.8-0.3-1.6-0.3-2.5
	c0-3.6,2.2-6.8,4.6-8.5L1829.1,102.3z M1985.9,3.8l-149.4,85.7c0.5,1.1,0.8,2.2,0.8,3.6c0,3.8-2.2,6.8-5.2,8.5l43.2,119.9
	c0.5-0.3,1.4-0.3,1.9-0.3c1.1,0,2.2,0.3,3,0.5L1987.8,5.7C1987.3,5.2,1986.5,4.7,1985.9,3.8z M1993.3,7.4c-1.1,0-1.9-0.3-3-0.5
	l-107.6,215.9c2.5,1.6,3.8,4.1,4.1,7.1l145.1,8.5c0.8-3.3,3.3-6,6.3-7.1L1993.8,7.4C1993.6,7.4,1993.6,7.4,1993.3,7.4z M2121.1,76.6
	c0-1.4,0.3-2.5,0.8-3.6L2000.7,3.8c-1.1,1.4-2.7,2.5-4.4,3l44.3,223.9c0.3,0,0.3,0,0.5,0c1.1,0,2.2,0.3,3.3,0.5l80.6-147
	C2122.8,82.4,2121.1,79.6,2121.1,76.6z M2131.8,85.9L2131.8,85.9c-0.3,0-0.8,0-1.1,0c-1.1,0-2.2-0.3-3.3-0.5l-80.6,147.2
	c1.1,1.1,2.2,2.2,2.7,3.6l82.2-26.3v0.3l40.4-12.9c-0.3-0.5-0.3-1.1-0.3-1.6c0-3.6,1.9-6.6,4.6-8.2l-43.4-101.8
	C2132.6,85.7,2132.3,85.9,2131.8,85.9z M2138.4,82.9c-0.5,0.8-1.4,1.4-2.2,1.9l43.7,101.5c0.8,0,1.6-0.3,2.5-0.3
	c4.6,0,8.7,3.6,9.3,8.2h113.7c0.3-1.1,0.5-1.9,0.8-2.7L2138.4,82.9z M2261.8,49.3c-0.5,0.3-1.4,0.3-1.9,0.3c-3.8,0-7.4-2.5-8.7-5.7
	l-24,6.8l-86.6,24.6c0,0.5,0,0.8,0,1.4c0,1.6-0.3,3-0.8,4.1l167.7,108.6c0.8-0.8,1.6-1.6,2.7-2.2L2261.8,49.3z M2383.4,1.9
	l-114.2,36.4c0.3,0.5,0.3,1.1,0.3,1.6c0,3.8-2.2,6.8-5.2,8.5l48.4,137.9c0.5-0.3,1.4-0.3,1.9-0.3c0.8,0,1.4,0,2.2,0.3L2387.2,6
	C2385.6,5.2,2384.2,3.6,2383.4,1.9z M2399.3,4.4c-1.6,1.9-4.4,3.3-7.1,3.3c-0.8,0-1.4,0-2.2-0.3l-70.5,180.3c1.4,0.5,2.5,1.6,3.3,3
	l206.5-94.7c-0.3-0.8-0.5-1.9-0.5-2.7c0-1.6,0.3-3,0.8-4.1L2399.3,4.4z M2530.4,98.2l-206.5,94.7c0.3,0.8,0.5,1.9,0.5,2.7
	c0,2.7-1.1,5.2-3,6.8l73.2,103.7c1.4-0.5,2.7-1.1,4.4-1.1c1.4,0,2.7,0.3,3.8,0.8L2532,100.4C2531.2,99.9,2530.7,99.1,2530.4,98.2z
	 M2539.7,102.3c-0.5,0.3-1.4,0.3-1.9,0.3c-1.4,0-2.7-0.3-3.8-0.8l-129.2,205.5c0.8,0.5,1.4,1.4,1.9,2.2l171.8-76.3
	c0-0.8-0.3-1.6-0.3-2.5c0-3.6,2.2-6.8,4.6-8.5L2539.7,102.3z M2696.5,3.8l-149.4,85.7c0.5,1.1,0.8,2.2,0.8,3.6
	c0,3.8-2.2,6.8-5.2,8.5l43.2,119.9c0.5-0.3,1.4-0.3,1.9-0.3c1.1,0,2.2,0.3,3,0.5L2698.4,5.7C2697.9,5.2,2697.1,4.7,2696.5,3.8z
	 M2703.9,7.4c-1.1,0-1.9-0.3-3-0.5l-107.6,215.9c2.5,1.6,3.8,4.1,4.1,7.1l145.1,8.5c0.8-3.3,3.3-6,6.3-7.1L2704.4,7.4
	C2704.2,7.4,2704.2,7.4,2703.9,7.4z M2831.7,76.6c0-1.4,0.3-2.5,0.8-3.6L2711.3,3.8c-1.1,1.4-2.7,2.5-4.4,3l44.3,223.9
	c0.3,0,0.3,0,0.5,0c1.1,0,2.2,0.3,3.3,0.5l80.6-147C2833.4,82.4,2831.7,79.6,2831.7,76.6z M2842.4,85.9L2842.4,85.9
	c-0.3,0-0.8,0-1.1,0c-1.1,0-2.2-0.3-3.3-0.5l-80.6,147.2c1.1,1.1,2.2,2.2,2.7,3.6l82.2-26.3v0.3l40.4-12.9c-0.3-0.5-0.3-1.1-0.3-1.6
	c0-3.6,1.9-6.6,4.6-8.2l-43.4-101.8C2843.2,85.7,2842.9,85.9,2842.4,85.9z M2849,82.9c-0.5,0.8-1.4,1.4-2.2,1.9l43.7,101.5
	c0.8,0,1.6-0.3,2.5-0.3c4.6,0,8.7,3.6,9.3,8.2h113.7c0.3-1.1,0.5-1.9,0.8-2.7L2849,82.9z M2972.4,49.3c-0.5,0.3-1.4,0.3-1.9,0.3
	c-3.8,0-7.4-2.5-8.7-5.7l-24,6.8l-86.6,24.6c0,0.5,0,0.8,0,1.4c0,1.6-0.3,3-0.8,4.1l167.7,108.6c0.8-0.8,1.6-1.6,2.7-2.2
	L2972.4,49.3z M3094,1.9l-114.2,36.4c0.3,0.5,0.3,1.1,0.3,1.6c0,3.8-2.2,6.8-5.2,8.5l48.4,137.9c0.5-0.3,1.4-0.3,1.9-0.3
	c0.8,0,1.4,0,2.2,0.3L3097.8,6C3096.2,5.2,3094.8,3.6,3094,1.9z M3109.9,4.4c-1.6,1.9-4.4,3.3-7.1,3.3c-0.8,0-1.4,0-2.2-0.3
	l-70.5,180.3c1.4,0.5,2.5,1.6,3.3,3l206.5-94.7c-0.3-0.8-0.5-1.9-0.5-2.7c0-1.6,0.3-3,0.8-4.1L3109.9,4.4z M3241,98.2l-206.5,94.7
	c0.3,0.8,0.5,1.9,0.5,2.7c0,2.7-1.1,5.2-3,6.8l73.2,103.7c1.4-0.5,2.7-1.1,4.4-1.1c1.4,0,2.7,0.3,3.8,0.8l129.2-205.5
	C3241.8,99.9,3241.3,99.1,3241,98.2z M3250.3,102.3c-0.5,0.3-1.4,0.3-1.9,0.3c-1.4,0-2.7-0.3-3.8-0.8l-129.2,205.5
	c0.8,0.5,1.4,1.4,1.9,2.2l171.8-76.3c0-0.8-0.3-1.6-0.3-2.5c0-3.6,2.2-6.8,4.6-8.5L3250.3,102.3z M3407.1,3.8l-149.4,85.7
	c0.5,1.1,0.8,2.2,0.8,3.6c0,3.8-2.2,6.8-5.2,8.5l43.2,119.9c0.5-0.3,1.4-0.3,1.9-0.3c1.1,0,2.2,0.3,3,0.5L3409,5.7
	C3408.5,5.2,3407.7,4.7,3407.1,3.8z M3414.5,7.4c-1.1,0-1.9-0.3-3-0.5l-107.6,215.9c2.5,1.6,3.8,4.1,4.1,7.1l145.1,8.5
	c0.8-3.3,3.3-6,6.3-7.1L3415,7.4C3414.8,7.4,3414.8,7.4,3414.5,7.4z M3546.2,84.3c-2.2-1.9-3.8-4.7-3.8-7.7c0-1.4,0.3-2.5,0.8-3.6
	L3421.9,3.8c-1.1,1.4-2.7,2.5-4.4,3l44.3,223.9c0.3,0,0.3,0,0.5,0c1.1,0,2.2,0.3,3.3,0.5L3546.2,84.3z M3466.1,249
	c-1.1,0.5-2.5,0.8-3.8,0.8c-5.2,0-9-3.8-9.6-8.8l-145.1-8.5c0,0.5-0.3,1.4-0.5,1.9l237.7,147c0.3-0.3,0.5-0.8,1.1-1.1L3466.1,249z
	 M3546.7,395.2c-1.6-1.1-3-3-3.6-4.9l-169.1,28.5v0.3c0,2.2-0.8,4.1-1.9,5.7l100.8,98.5c1.6-1.1,3.6-1.9,5.7-1.9
	c1.1,0,1.9,0.3,3,0.5L3546.7,395.2z M3481.4,539.9c-0.8,0.3-1.6,0.5-2.7,0.5c-3.6,0-6.6-1.9-8.2-4.9L3300,601.8
	c0.3,0.8,0.3,1.4,0.3,2.2c0,0.5-0.3,1.1-0.3,1.6l243.4,77.2c0.8-1.6,1.9-2.7,3.3-3.8L3481.4,539.9z" />
</svg>