<?xml version="1.0" encoding="utf-8"?>
<!DOCTYPE svg PUBLIC "-//W3C//DTD SVG 1.1//EN" "http://www.w3.org/Graphics/SVG/1.1/DTD/svg11.dtd">
<svg xmlns="http://www.w3.org/2000/svg" xmlns:xlink="http://www.w3.org/1999/xlink" width="1669px" height="1671px">
<defs>
<linearGradient id="PSgrad_0" x1="100%" x2="0%" y1="0%" y2="0%">
  <stop offset="0%" stop-color="rgb(61,24,61)" stop-opacity="1" />
  <stop offset="100%" stop-color="rgb(236,24,70)" stop-opacity="1" />
</linearGradient>

</defs>
<path fill-rule="evenodd"  fill="url(#PSgrad_0)"
 d="M1251.185,660.427 C1251.547,659.461 1252.089,658.016 1251.970,656.870 L1527.342,662.630 C1528.256,669.019 1532.121,674.864 1538.884,677.396 C1539.851,677.758 1540.813,678.118 1541.960,678.000 L1530.665,903.628 C1527.228,903.990 1523.428,905.317 1520.891,907.669 L1249.259,664.104 C1250.282,662.838 1250.644,661.873 1251.185,660.427 M1527.521,657.746 L1252.146,651.991 C1251.903,649.698 1250.997,647.710 1250.086,645.720 L1552.749,421.384 C1554.320,423.074 1556.555,424.458 1559.450,425.542 C1560.418,425.904 1560.899,426.084 1561.865,426.446 L1548.053,595.594 L1544.227,642.552 C1537.527,642.793 1530.834,647.440 1528.305,654.189 C1527.943,655.155 1527.402,656.600 1527.521,657.746 M1515.842,929.972 L1279.949,1103.967 C1278.377,1102.277 1276.142,1100.893 1273.247,1099.809 C1271.799,1099.267 1269.686,1099.024 1268.057,1098.964 L1237.554,671.821 C1240.510,671.279 1243.168,670.072 1245.038,668.023 L1516.669,911.588 C1515.646,912.854 1515.285,913.819 1514.743,915.265 C1512.936,920.088 1513.544,925.814 1515.842,929.972 M1549.789,417.527 L1247.127,641.863 C1245.861,640.836 1244.593,639.814 1242.839,638.609 L1318.003,437.986 C1326.576,440.095 1335.563,435.211 1338.633,427.016 C1339.177,425.565 1339.237,423.939 1339.779,422.494 L1547.853,412.404 C1548.278,414.211 1548.703,416.019 1549.789,417.527 M1320.228,1455.034 C1318.415,1455.453 1316.911,1456.542 1315.583,1457.143 L1005.737,1124.490 C1006.764,1123.226 1007.968,1121.477 1008.691,1119.546 C1009.052,1118.584 1009.595,1117.135 1009.475,1115.992 L1249.545,1118.979 C1250.454,1125.368 1254.322,1131.217 1261.081,1133.747 C1263.495,1134.651 1265.610,1134.892 1267.900,1134.648 L1320.228,1455.034 M1310.472,1481.076 L1108.066,1649.458 C1106.498,1647.773 1104.745,1646.566 1102.330,1645.662 C1097.020,1643.674 1091.107,1644.760 1086.280,1647.352 L880.246,1408.002 C881.454,1406.255 882.658,1404.506 883.381,1402.575 C883.561,1402.095 883.561,1402.095 883.742,1401.612 L1308.048,1471.369 C1307.930,1474.625 1308.780,1478.243 1310.472,1481.076 M1308.707,1466.668 L884.401,1396.910 C884.460,1390.883 881.257,1384.735 876.003,1381.117 L986.913,1130.640 C992.408,1132.149 997.655,1131.364 1002.183,1128.108 L1312.023,1460.761 C1310.819,1462.509 1309.792,1463.774 1309.069,1465.702 C1308.888,1466.185 1308.888,1466.185 1308.707,1466.668 M985.280,730.804 C986.365,727.908 986.302,725.135 986.243,722.363 L1217.692,661.636 C1219.328,666.099 1222.948,669.656 1227.777,671.463 C1229.225,672.006 1231.340,672.244 1232.968,672.306 L1263.472,1099.447 C1261.838,1099.386 1260.029,1099.809 1258.520,1100.893 L981.303,737.011 C982.992,735.447 984.377,733.216 985.280,730.804 M1250.084,1113.134 L1010.010,1110.143 C1008.740,1104.719 1004.390,1098.690 998.113,1096.340 C996.665,1095.798 995.036,1095.739 993.584,1095.195 L972.496,741.415 C974.306,740.991 976.116,740.568 977.624,739.484 L1254.841,1103.366 C1253.156,1104.934 1251.767,1107.163 1250.863,1109.575 C1250.502,1110.540 1249.960,1111.986 1250.084,1113.134 M808.379,942.827 C810.728,936.559 809.032,929.324 804.805,924.444 L923.701,781.989 L958.853,739.604 C959.821,739.967 960.606,740.814 962.053,741.356 C963.502,741.898 965.136,741.957 966.583,742.498 L987.670,1096.281 C984.894,1096.342 982.242,1097.549 979.891,1099.418 L806.450,946.506 C807.295,945.721 807.837,944.275 808.379,942.827 M1238.678,636.498 C1235.595,635.898 1232.340,635.774 1229.683,636.981 L1027.559,218.176 C1028.402,217.396 1029.728,216.791 1030.753,215.527 L1306.217,412.131 C1306.037,412.612 1305.676,413.577 1305.496,414.057 C1302.244,422.737 1305.991,431.841 1313.840,435.880 L1238.678,636.498 M848.493,1397.216 L563.929,1451.255 C563.809,1450.112 563.023,1449.268 562.721,1448.604 L979.244,1126.121 C980.030,1126.965 981.297,1127.990 982.264,1128.352 L871.355,1378.826 C862.301,1376.538 853.009,1380.757 849.576,1389.920 C848.673,1392.331 848.250,1394.923 848.493,1397.216 M1216.422,656.215 L984.968,716.940 C983.337,712.479 979.712,708.921 974.883,707.113 C974.402,706.933 973.435,706.571 972.954,706.391 L1017.663,221.071 C1019.290,221.132 1020.619,220.529 1022.429,220.106 L1224.375,639.393 C1221.356,641.565 1218.645,644.395 1217.380,647.772 C1216.295,650.668 1216.358,653.442 1216.422,656.215 M974.103,1110.448 L633.188,1103.252 C632.641,1100.298 631.613,1097.163 630.224,1094.995 L780.504,951.090 C781.772,952.113 783.522,953.318 784.972,953.861 C791.249,956.211 797.827,954.826 802.712,950.605 L976.150,1103.517 C975.789,1104.480 975.428,1105.445 974.886,1106.891 C974.524,1107.857 973.983,1109.302 974.103,1110.448 M976.285,1122.263 L559.761,1444.747 C557.708,1442.877 555.655,1441.011 553.059,1440.589 L614.676,1123.266 C622.340,1123.386 629.518,1118.925 632.229,1111.692 C632.590,1110.726 633.132,1109.280 633.010,1108.133 L973.929,1115.332 C974.168,1117.620 974.897,1120.095 976.285,1122.263 M874.371,271.362 C875.998,267.019 875.995,262.620 874.180,258.644 L1000.697,211.970 C1002.692,215.466 1005.833,218.844 1010.179,220.471 C1010.844,220.167 1011.808,220.528 1012.291,220.709 L967.581,706.033 C967.581,706.033 967.095,705.851 966.915,706.332 L865.869,280.826 C869.851,279.019 872.746,275.699 874.371,271.362 M955.232,736.053 L801.179,920.885 C800.215,920.524 799.428,919.682 797.980,919.140 C795.386,918.716 792.790,918.295 790.015,918.357 L697.241,503.098 C699.233,502.190 701.225,501.287 702.911,499.722 L953.406,714.474 C953.046,715.435 952.017,716.703 951.657,717.664 C949.306,723.937 951.002,731.166 955.232,736.053 M708.398,492.426 C710.928,485.673 709.234,478.439 704.040,473.197 L848.788,279.382 C849.755,279.744 850.542,280.587 851.989,281.129 C854.708,282.694 857.966,282.818 861.405,282.452 L962.149,707.297 C960.160,708.201 958.652,709.285 957.141,710.373 L706.652,495.623 C707.013,494.658 708.036,493.392 708.398,492.426 M359.667,1239.513 C361.113,1235.656 360.930,1231.737 360.082,1228.122 L600.608,1115.250 C602.783,1118.266 605.620,1120.977 609.485,1122.424 L609.966,1122.604 L548.353,1439.925 C544.609,1439.625 540.324,1440.770 537.308,1442.941 L356.716,1244.457 C357.922,1242.710 358.944,1241.444 359.667,1239.513 M785.549,919.985 C783.559,920.889 782.230,921.492 780.544,923.060 L474.120,644.477 C474.662,643.031 475.024,642.066 475.566,640.620 C477.372,635.797 476.886,631.217 475.253,626.755 L677.504,498.459 C679.378,500.809 682.096,502.374 684.992,503.458 C687.406,504.362 690.001,504.786 692.777,504.724 L785.549,919.985 M777.061,947.052 L626.781,1090.956 C625.512,1089.931 623.762,1088.725 622.313,1088.183 C616.034,1085.832 609.456,1087.220 604.573,1091.441 L353.589,863.307 C354.131,861.860 354.492,860.895 355.034,859.449 L773.551,935.838 C773.252,939.577 774.403,943.855 777.061,947.052 M598.188,1109.946 L573.456,1121.583 L357.663,1222.816 C355.490,1219.803 352.650,1217.092 348.787,1215.646 C347.337,1215.103 346.373,1214.742 344.743,1214.679 L340.919,870.662 C344.359,870.301 347.014,869.094 349.547,866.744 L600.533,1094.877 C599.508,1096.142 599.146,1097.108 598.604,1098.554 C597.158,1102.413 597.342,1106.329 598.188,1109.946 M774.394,930.655 L356.054,853.782 C356.111,847.754 353.694,842.451 348.922,839.016 L452.339,651.171 C458.616,653.521 465.194,652.133 470.078,647.915 L776.503,926.496 C775.478,927.760 775.116,928.726 774.574,930.172 L774.394,930.655 M844.320,276.609 L699.573,470.424 C698.606,470.062 698.123,469.881 697.158,469.520 C693.293,468.073 689.372,468.254 685.751,469.100 L674.264,443.904 L564.005,204.665 C567.022,202.492 569.735,199.662 571.001,196.286 L840.204,259.672 C838.822,266.302 840.395,272.390 844.320,276.609 M843.339,254.246 C843.159,254.726 842.494,255.030 842.314,255.511 L572.144,191.763 C572.923,183.806 568.147,175.971 560.421,173.079 C557.041,171.813 553.781,171.694 550.824,172.235 L497.059,21.781 C499.052,20.878 500.558,19.794 501.764,18.044 L843.339,254.246 M325.022,1232.042 L36.512,1255.464 C35.481,1252.329 34.274,1249.675 31.917,1247.145 L329.090,868.433 C330.057,868.795 330.841,869.639 331.807,870.000 C333.255,870.542 334.222,870.905 335.851,870.964 L339.977,1215.644 C333.580,1216.550 328.211,1220.589 325.862,1226.858 C325.139,1228.789 325.081,1230.415 325.022,1232.042 M447.568,647.736 L344.153,835.579 C342.221,834.856 340.109,834.615 337.994,834.374 L283.459,462.574 C284.785,461.969 286.777,461.066 287.802,459.801 L444.230,622.843 C443.205,624.107 442.000,625.852 441.456,627.303 C438.566,635.017 441.531,643.274 447.568,647.736 M293.951,452.201 C295.938,446.898 295.150,441.652 292.551,436.834 L543.307,204.064 C544.575,205.086 546.324,206.294 548.256,207.017 C552.120,208.464 556.041,208.283 559.662,207.437 L681.408,471.872 C678.391,474.045 675.678,476.875 674.231,480.736 C672.424,485.559 672.913,490.140 674.543,494.601 L472.291,622.897 C470.419,620.547 467.705,618.978 464.806,617.893 C459.011,615.724 452.612,616.631 447.910,620.370 L290.998,457.148 C292.205,455.398 293.228,454.132 293.951,452.201 M539.381,199.845 L289.109,432.796 C288.625,432.615 288.323,431.948 287.840,431.767 L483.483,22.745 C486.381,23.830 489.639,23.955 492.114,23.227 L545.878,173.682 C542.378,175.674 539.002,178.808 537.377,183.145 C535.209,188.934 536.298,194.840 539.381,199.845 M281.925,428.452 L269.277,462.210 C269.761,462.391 269.761,462.391 270.244,462.572 C272.659,463.476 275.253,463.900 278.030,463.838 L332.564,835.641 C327.618,837.087 322.913,840.825 320.745,846.613 C318.216,853.364 319.909,860.598 324.803,865.179 L27.148,1243.710 C26.181,1243.349 25.879,1242.685 24.915,1242.324 C15.737,1238.888 5.121,1243.713 1.688,1252.875 C1.507,1253.358 1.146,1254.321 0.966,1254.804 L34.771,1267.459 C34.951,1266.976 35.312,1266.013 35.493,1265.531 C36.216,1263.602 36.275,1261.973 36.333,1260.346 L324.844,1236.927 C326.115,1242.351 330.164,1247.715 335.960,1249.884 C338.375,1250.788 340.485,1251.031 342.779,1250.789 L366.059,1391.479 L371.855,1393.649 L348.511,1250.185 C350.321,1249.762 351.649,1249.161 353.158,1248.074 L533.449,1445.895 C532.243,1447.642 531.219,1448.910 530.497,1450.839 C530.316,1451.321 529.955,1452.285 529.774,1452.767 L563.096,1465.242 C563.277,1464.759 563.638,1463.795 563.818,1463.313 C564.722,1460.902 565.142,1458.310 564.898,1456.019 L848.983,1401.796 C850.433,1406.738 854.359,1410.957 859.674,1412.946 C860.636,1413.307 861.603,1413.669 862.749,1413.550 L854.785,1574.437 L860.096,1576.426 L868.121,1413.910 C870.897,1413.851 873.554,1412.644 876.205,1411.437 L1082.720,1650.968 C1081.516,1652.716 1080.312,1654.467 1079.590,1656.396 C1079.409,1656.878 1079.048,1657.842 1078.867,1658.324 L1112.186,1670.797 C1112.367,1670.315 1112.728,1669.351 1112.909,1668.869 C1114.897,1663.564 1114.289,1657.837 1111.030,1653.317 L1313.732,1485.596 C1314.518,1486.440 1314.998,1486.620 1315.785,1487.463 L1328.071,1454.670 C1327.104,1454.308 1326.443,1454.611 1325.295,1454.732 L1272.490,1134.168 C1275.627,1133.143 1278.460,1131.454 1280.511,1128.922 L1417.327,1216.434 L1419.133,1211.611 L1283.284,1124.461 C1283.465,1123.978 1283.646,1123.496 1283.646,1123.496 C1285.453,1118.673 1284.844,1112.947 1282.547,1108.789 L1518.921,934.975 C1519.707,935.817 1520.492,936.664 1521.940,937.206 L1535.491,901.036 L1546.670,678.662 C1553.549,677.940 1559.580,673.598 1561.929,667.329 C1564.279,661.056 1562.884,654.487 1559.138,649.788 L1664.677,556.220 L1668.652,545.609 L1555.693,645.749 C1554.428,644.722 1552.979,644.180 1551.532,643.638 C1550.564,643.276 1550.084,643.095 1549.117,642.734 L1553.836,584.565 L1566.935,426.147 C1573.149,425.724 1579.000,421.862 1582.133,416.441 L1548.814,403.968 C1548.454,404.928 1548.753,405.593 1548.392,406.559 L1340.014,415.981 C1338.925,410.075 1334.875,404.708 1328.598,402.358 C1327.631,401.996 1326.669,401.636 1325.521,401.760 L1329.562,321.889 L1324.732,320.081 L1320.630,401.578 C1316.044,402.063 1312.066,403.871 1309.168,407.183 L1033.043,210.885 L999.238,198.230 C998.818,200.822 998.396,203.414 999.426,206.549 L872.246,253.516 C870.373,251.166 867.535,248.455 864.154,247.189 C862.706,246.648 860.594,246.405 858.963,246.347 L841.319,139.112 L835.526,136.943 L853.411,246.465 C850.937,247.193 848.464,247.916 846.775,249.480 L504.538,13.583 L470.733,0.928 C468.987,8.523 472.313,15.814 478.350,20.276 L283.372,428.994 L282.892,428.814 C282.408,428.633 282.408,428.633 281.925,428.452 "/>
</svg>