<?xml version="1.0" encoding="utf-8"?>
<!-- Generator: Adobe Illustrator 23.0.1, SVG Export Plug-In . SVG Version: 6.00 Build 0)  -->
<svg version="1.1" id="Layer_1" xmlns="http://www.w3.org/2000/svg" xmlns:xlink="http://www.w3.org/1999/xlink" x="0px" y="0px"
	 viewBox="0 0 1406.5 795.5" style="enable-background:new 0 0 1406.5 795.5;" xml:space="preserve">
<style type="text/css">
	.st0{fill:url(#SVGID_1_);}
	.st1{fill:url(#SVGID_2_);}
</style>
<g>
	<linearGradient id="SVGID_1_" gradientUnits="userSpaceOnUse" x1="461.6" y1="467.6" x2="461.6" y2="467.6">
		<stop  offset="0.25" style="stop-color:#EC1846"/>
		<stop  offset="0.3576" style="stop-color:#F04E71;stop-opacity:0.8565"/>
		<stop  offset="0.4797" style="stop-color:#F5839C;stop-opacity:0.6938"/>
		<stop  offset="0.5993" style="stop-color:#F8AFBF;stop-opacity:0.5343"/>
		<stop  offset="0.7136" style="stop-color:#FBD2DB;stop-opacity:0.3819"/>
		<stop  offset="0.8212" style="stop-color:#FDEBEF;stop-opacity:0.2384"/>
		<stop  offset="0.9195" style="stop-color:#FFFAFB;stop-opacity:0.1073"/>
		<stop  offset="1" style="stop-color:#FFFFFF;stop-opacity:0"/>
	</linearGradient>
	<path class="st0" d="M461.6,467.6L461.6,467.6L461.6,467.6z"/>
	<linearGradient id="SVGID_2_" gradientUnits="userSpaceOnUse" x1="0.1" y1="397.6" x2="1406.5997" y2="397.6">
		<stop  offset="0.25" style="stop-color:#EC1846"/>
		<stop  offset="0.3576" style="stop-color:#F04E71;stop-opacity:0.8565"/>
		<stop  offset="0.4797" style="stop-color:#F5839C;stop-opacity:0.6938"/>
		<stop  offset="0.5993" style="stop-color:#F8AFBF;stop-opacity:0.5343"/>
		<stop  offset="0.7136" style="stop-color:#FBD2DB;stop-opacity:0.3819"/>
		<stop  offset="0.8212" style="stop-color:#FDEBEF;stop-opacity:0.2384"/>
		<stop  offset="0.9195" style="stop-color:#FFFAFB;stop-opacity:0.1073"/>
		<stop  offset="1" style="stop-color:#FFFFFF;stop-opacity:0"/>
	</linearGradient>
	<path class="st1" d="M1397.4,568c-1,0-1.9,0.2-2.8,0.4l-50.9-89.7c2.5-1.9,3.8-5,3.5-8.2c0-0.5-0.2-1-0.4-1.5l33.8-15.1
		c0-0.1,0-0.1-0.1-0.2c1.5,3,4.6,5.1,8.2,5.1c5,0,9.1-4.1,9.1-9.1s-4.1-9.1-9.1-9.1s-9.1,4.1-9.1,9.1c0,0.7,0.1,1.4,0.2,2
		c0-0.1,0-0.2-0.1-0.2l-34,15.2c-1.1-1.9-3-3.2-5.1-3.8l24.6-166.2c5.1,0,9.2-4.2,9.2-9.3c0-5.1-4.1-9.3-9.3-9.3
		c-2.1,0-4,0.7-5.5,1.9l-49.6-45.8V234c0.6-1.2,1-2.6,1-4.1c0-1.2-0.2-2.3-0.6-3.4l40.1-29.5c1.7,1.9,4.1,3.1,6.8,3.1
		c5,0,9.1-4.1,9.1-9.1s-4.1-9.1-9.1-9.1s-9.1,4.1-9.1,9.1c0,1.3,0.3,2.6,0.8,3.7l-40,29.4c-0.8-1-1.8-1.8-2.9-2.3l27.2-203.9
		c4.4-0.6,7.8-4.4,7.8-9c0-5-4.1-9.1-9.1-9.1c-4.2,0-7.8,2.9-8.8,6.9l-224,5.9c-0.2-2.4-1.3-4.7-3.3-6.4c-3.9-3.2-9.6-2.6-12.8,1.3
		l0,0l0,0c-2.5,3.1-2.7,7.4-0.6,10.6l0,0L929.9,126.5c-1.9-2.1-4.7-3.1-7.5-2.8c-3.4,0.3-6.3,2.7-7.3,6l-235-46.5c0-0.1,0-0.1,0-0.2
		c0-0.4,0-0.7-0.1-1.1l0,0c0-0.1,0-0.2-0.1-0.4c0-0.1,0-0.3-0.1-0.4c0-0.2-0.1-0.4-0.2-0.6c0-0.1,0-0.1-0.1-0.2v-0.1
		c-1.2-3.6-4.6-6.3-8.6-6.3c-0.7,0-1.3,0.1-1.9,0.2l0,0l0,0c-3.7,0.8-6.6,3.9-7.1,7.7l-225,5.9c-0.5-4.6-4.3-8.1-9-8.1
		c-5,0-9.1,4.1-9.1,9.1c0,1.7,0.5,3.3,1.3,4.6L267.6,201.6c-1.7-1.7-4-2.8-6.5-2.8c-0.7,0-1.4,0.1-2,0.2c-0.2,0-0.4,0.1-0.6,0.2
		c-0.1,0-0.1,0-0.2,0.1c-0.8,0.2-1.5,0.6-2.1,1c-0.2,0.1-0.3,0.2-0.5,0.3c-0.1,0.1-0.2,0.1-0.3,0.2c-1.3,1-2.3,2.4-2.9,4L18.2,158.5
		c0-0.1,0-0.2,0-0.4c0-5-4.1-9.1-9.1-9.1c-0.5,0-0.9,0-1.3,0.1l0,0l-1,0.1v0.1c-3.9,1-6.7,4.6-6.7,8.8c0,5,4.1,9.1,9.1,9.1
		c1.2,0,2.3-0.2,3.4-0.7L87.8,289c-2.3,1.9-3.5,4.9-3.2,7.9c0.1,1.2,0.5,2.3,1.1,3.2l-56.1,41.3c-1.7-2.2-4.3-3.6-7.2-3.6
		c-5,0-9.1,4.1-9.1,9.1s4.1,9.1,9.1,9.1s9.1-4.1,9.1-9.1c0-1.1-0.2-2.1-0.6-3.1l56.3-41.3c0.5,0.7,1.2,1.2,2,1.6L42.4,428.4
		c-0.6-0.1-1.2-0.2-1.8-0.2c-5,0-9.1,4.1-9.1,9.1s4.1,9.1,9.1,9.1c1.6,0,3.1-0.4,4.4-1.2l88.1,113.6c-1.9,1.9-2.9,4.6-2.5,7.3
		c0,0.5,0.2,1,0.4,1.5L59,600c-1.4-3.1-4.6-5.3-8.3-5.3c-5,0-9.1,4.1-9.1,9.1s4.1,9.1,9.1,9.1s9.1-4.1,9.1-9.1c0-0.4,0-0.8-0.1-1.2
		l72.3-32.5c0.8,1.2,1.8,2.2,2.9,3L75.5,718.7c-0.7-0.2-1.5-0.3-2.3-0.3c-5,0-9.1,4.1-9.1,9.1s4.1,9.1,9.1,9.1
		c3.3,0,6.2-1.8,7.8-4.4L200.9,784c-0.1,0.4-0.2,0.7-0.2,1.1c0,0.1,0,0.1-0.1,0.2l0,0c0,0.3-0.1,0.7-0.1,1c0,5,4.1,9.1,9.1,9.1
		s9.1-4.1,9.1-9.1c0-1.6-0.4-3.1-1.2-4.5l130-95.7c1.1,1.2,2.6,2,4.1,2.4l-7.7,78.6c-4.7,0.3-8.4,4.3-8.4,9.1c0,5,4.1,9.1,9.1,9.1
		s9.1-4.1,9.1-9.1c0-4.4-3.1-8.1-7.3-8.9l7.8-78.5l0.5-0.1c2.5-0.3,4.8-1.7,6.3-3.8l130.4,65.5c-0.2,0.8-0.4,1.7-0.4,2.6
		c0,5,4.1,9.1,9.1,9.1s9.1-4.1,9.1-9.1c0-0.8-0.1-1.5-0.3-2.2l102.5-46c1.6,2.6,4.5,4.4,7.8,4.4c5,0,9.1-4.1,9.1-9.1
		c0-0.8-0.1-1.6-0.3-2.4l26.9-11.1l73.2-30c1.5,2.5,4,4.2,7,4.4c0.3,0,0.5,0.1,0.8,0.1l0,0l0,0c3.2,0,6.1-1.7,7.7-4.3l118.9,51.5
		l0,0c-0.1,0.4-0.1,0.8-0.1,1.2c0,5,4.1,9.1,9.1,9.1s9.1-4.1,9.1-9.1c0-1.1-0.2-2.1-0.5-3.1l129.8-95.6c1.1,1.2,2.6,2,4.1,2.4
		l-7.3,74.1c0.1,0,0.1,0,0.2,0c-4.1,0.9-7.2,4.5-7.2,8.9c0,5,4.1,9.1,9.1,9.1s9.1-4.1,9.1-9.1s-4-9-8.9-9.1c0.1,0,0.2,0,0.3,0
		l7.3-73.6c2.9-0.1,5.5-1.5,7.1-3.7l129.9,65.3c0,0.3-0.1,0.6-0.1,1c0,5,4.1,9.1,9.1,9.1s9.1-4.1,9.1-9.1c0-0.2,0-0.5,0-0.7
		l102.1-45.8c1.8,2.9,5.1,4.5,8.5,4.2c3.1-0.3,5.9-2.3,7.2-5.2l61.9,24.3c-0.3,1-0.5,2-0.5,3.1c0,5,4.1,9.1,9.1,9.1s9.1-4.1,9.1-9.1
		s-4.1-9.1-9.1-9.1c-3,0-5.6,1.4-7.3,3.7l-62.1-24.4c0.1-0.8,0.1-1.6,0-2.3c-0.1-0.5-0.1-0.8-0.1-1.3l26.9-11.1l72.5-29.7
		c1.6,2.5,4.4,4.2,7.6,4.2c5,0,9.1-4.1,9.1-9.1S1402.4,568,1397.4,568z M1360.7,295.6c0.6,0.4,1.3,0.7,2.1,0.9l-24.9,166.4l-1,0.1
		c-4.4,0.4-7.8,4.2-7.8,8.6l-106,12l0,0c-0.3-1.5-1.1-2.8-2.2-3.9L1360.7,295.6z M1218.5,477.9c-1.6-0.9-3.5-1.3-5.3-1.2
		c-1.4,0.2-2.8,0.7-4,1.5l0,0l-79.2-89c1.6-1.8,2.4-4.3,2.1-6.7c0-0.2-0.1-0.8-0.1-1l225-89.7c0.4,0.8,0.9,1.6,1.6,2.2L1218.5,477.9
		z M948.2,477L948.2,477L948.2,477l-237-111.9c0.3-0.9,0.4-1.8,0.4-2.7c0-0.4,0-0.9-0.1-1.3l154.6-44.4c1.6,3.5,5.3,5.5,9.1,5.2
		c0.6,0,1.2-0.2,1.8-0.5l73.8,152.9C949.7,475.1,948.9,475.9,948.2,477L948.2,477z M797.4,482.5L797.4,482.5L797.4,482.5
		l-88.2-113.9c0.3-0.4,0.7-0.8,0.9-1.2l237,111.8c-0.2,0.6-0.3,1.2-0.3,1.8l-136.2,7.4c-0.9-4.6-5.2-7.7-9.8-7.2
		C799.6,481.4,798.4,481.8,797.4,482.5L797.4,482.5z M865.3,314.3v0.2l-154.4,44.3c-0.8-1.9-2.2-3.4-4-4.4L754,229.7
		c0.9,0.2,1.9,0.3,2.9,0.2c1.9-0.3,3.7-1.1,5.1-2.4l104.4,81.2C865.5,310.4,865.1,312.3,865.3,314.3z M879.1,320.4
		c1.2-0.9,2.2-1.9,3-3.2l97.8,34.1c-0.2,0.9-0.3,1.7-0.2,2.6c0.3,3.2,2.4,6,5.5,7.1l-28.6,111.6c-0.5,0.1-1,0.1-1.8,0.2
		c-0.6,0-1.2,0.2-1.8,0.5l0,0L879.1,320.4z M987.8,361.9c0.7,0.2,1.4,0.2,2.1,0l0,0c3.3-0.5,6.1-2.7,7.3-5.8l90.1,20.6l26.7,6
		c0.1,0.5-0.1,1.1-0.1,1.8c0.1,0.8,0.4,1.5,0.5,2.3l-152.2,89.4c-0.7-1.2-1.8-2.2-3.1-2.7L987.8,361.9z M1156.9,207.8
		c0.2,1.3,0.6,2.6,1.2,3.7L994.9,346.6c-0.7-0.7-1.6-1.2-2.5-1.5l54.4-199l2-0.2c2.4-0.3,4.5-1.5,6.1-3.3l102.6,60.7
		C1156.9,204.7,1156.7,206.3,1156.9,207.8z M998,353.8c-0.1-0.5,0.1-1.1,0.1-1.8c-0.4-1.3-0.9-2.5-1.5-3.7l163.3-135.1
		c0.8,0.7,1.8,1.3,2.8,1.8L1124,374.6c-0.5,0.1-1.3-0.1-1.8-0.1c-3.3,0.5-6.1,2.6-7.4,5.7L998,353.8z M1165.3,215.6
		c0.5-0.1,1.3,0.1,1.8,0.1l0,0c3.5-0.4,6.5-2.9,7.5-6.3l118.3,20.3c0,0.1,0,0.2,0,0.4c0,2,0.7,3.9,1.8,5.4l0.2,0.6l-165.7,140.8
		c-0.8-0.6-1.6-1.1-2.5-1.5L1165.3,215.6z M1172.3,200.4l8.6-10.8l81.2-103c1.6,0.9,3.5,1.3,5.3,1.2l32.6,133.5
		c-3.1,0.7-5.6,3-6.7,6l-118.5-20.4c-0.1-0.5-0.1-0.8-0.1-1.3C1174.5,203.6,1173.6,201.8,1172.3,200.4z M1308.4,236.5l49.3,45.6
		c-1.1,1.5-1.8,3.4-1.8,5.4c0,0.5,0.1,1,0.1,1.5c-29.5,12.1-225.2,89.9-225.2,89.9c0-0.1-0.1-0.2-0.3-0.2l0,0l165.9-141.1h0.4
		c1.4,1,3.2,1.5,5,1.5C1304.5,239.2,1306.8,238.2,1308.4,236.5z M1327,16.7c1.1,0.7,2.3,1.2,3.7,1.4l-27.3,203c-0.3,0-0.7-0.1-1-0.1
		l-32.6-133.8c3.8-1.5,6.1-5.4,5.6-9.4c-0.2-1.6-0.8-3.2-1.8-4.4L1327,16.7z M1099,15.3l223.9-5.6c0.1,2,0.9,3.8,2.1,5.3l-53.3,56.5
		c-4-2.9-9.6-2-12.5,2c-0.2,0.3-0.4,0.7-0.6,1l0,0l-159.9-58.4C1098.8,15.9,1099,15.6,1099,15.3z M1091.3,22.7L1091.3,22.7
		c2.7-0.3,5.1-1.8,6.5-4.1l159.9,58.6c-0.2,0.9-0.3,1.9-0.2,2.9c0.3,1.9,1.1,3.7,2.4,5.2l-89.8,113.8c-3.9-2.2-8.8-1.4-11.6,2.1
		l-102.6-60.7c0.6-1.4,0.8-2.9,0.5-4.5c-0.3-3-2.2-5.7-4.9-6.9l37-106.5C1089.4,22.7,1090.4,22.7,1091.3,22.7z M1084.3,20.4
		c0.6,0.6,1.4,1,2.2,1.3l-37,106.3c-0.9-0.2-1.7-0.3-2.6-0.2c-3.9,0.5-7,3.5-7.7,7.3l-106.7-3.4c-0.2-1-0.5-2-0.9-3L1084.3,20.4z
		 M932.1,134.5l106.7,3.4c0.3,3.2,2.4,6,5.5,7.1L990,344c-0.7-0.1-1.4-0.1-2.1,0h-0.3l0,0l-60.4-203
		C929.8,139.8,931.7,137.4,932.1,134.5z M922.4,142.1l2-0.2l60.7,203c-1.9,0.8-3.4,2.2-4.2,4.1l0,0l-97.8-34.1
		c0.2-0.9,0.3-1.7,0.2-2.6c-0.3-3.2-2.5-6-5.5-7.1L922.4,142.1z M916.3,138.1c0.9,1.4,2.2,2.4,3.7,2.9l-44.5,163
		c-0.7-0.1-1.4-0.1-2.1,0c-1.9,0.3-3.7,1.1-5.1,2.4l0,0l0,0l0,0l-10.7-8.3l-93.7-72.9c0.9-1.7,1.3-3.6,1.2-5.6c0-0.7-0.2-1.4-0.5-2
		L916.3,138.1z M679.6,86.2l235.1,46.2c0.1,0.5-0.1,1-0.1,1.6c0,0.7,0.2,1.4,0.5,2l-152,79.8c-1.8-2.7-5-4.1-8.2-3.7
		c-0.9,0.1-1.7,0.4-2.5,0.8l0,0L676.8,90.1C678.1,89.1,679,87.7,679.6,86.2z M671.1,92.2c1.3,0,2.6-0.3,3.7-0.8l75.4,122.5
		c-2.3,1.9-3.5,4.9-3.2,7.9c0.1,1.2,0.5,2.3,1.1,3.2l-56.9,42l0.3,3l-0.2,0.2v0.1l58.4-42.8c0.5,0.7,1.2,1.2,2,1.6l-47,124.6
		c-0.7-0.2-1.4-0.3-2.1-0.3c-0.5,0-1.1,0.1-1.6,0.1v-0.1c-0.4,0.1-0.7,0.2-1.1,0.3c-1,0.3-2,0.8-2.8,1.4l-49.4-45.6
		c0.8-1.6,1.1-3.3,1-5c-0.1-0.9-0.4-1.7-0.8-2.5l43.3-31.9l-0.3-3l0.2-0.2l0,0l-44.5,32.7c-0.8-1-1.7-1.7-2.8-2.3L671.1,92.2z
		 M560.6,558.7L560.6,558.7L560.6,558.7c-0.3-1.5-1.1-2.8-2.2-3.9l140.1-184.3c0.6,0.3,1.1,0.5,1.8,0.7c0.1,0,0.1,0.1,0.2,0.1
		l-25,166.7l-1,0.1c-4.4,0.4-7.8,4.2-7.8,8.6L560.6,558.7L560.6,558.7z M546.9,553.3L546.9,553.3L546.9,553.3l-79.2-89
		c1.6-1.8,2.4-4.3,2.1-6.7c0-0.2-0.1-0.8-0.1-1l225-89.8c0.4,0.8,1,1.5,1.6,2.1L556.1,553c-1.6-0.9-3.5-1.3-5.3-1.2
		C549.4,552.1,548.1,552.6,546.9,553.3L546.9,553.3z M452.4,455.5L452.4,455.5L452.4,455.5l-116.8-26.6c-0.1-0.5,0.1-1.1,0.1-1.8
		c-0.4-1.3-0.9-2.5-1.5-3.7l163.3-135.1c0.8,0.7,1.8,1.3,2.8,1.8l-38.7,159.7c-0.5,0.1-1.3-0.1-1.8-0.1
		C456.5,450.2,453.7,452.4,452.4,455.5L452.4,455.5z M49.6,436.1l154.1-44.3c1.6,3.5,5.3,5.5,9.1,5.2c0.6,0,1.2-0.2,1.8-0.4
		l73.8,152.9c-1,0.7-1.9,1.6-2.5,2.6l0,0L49.1,440.4c0.4-1,0.6-2,0.6-3.1C49.7,436.9,49.7,436.5,49.6,436.1z M216.8,395.6
		c1.2-0.9,2.2-1.9,3-3.2l97.8,34.2c-0.2,0.9-0.3,1.7-0.2,2.6c0.3,3.2,2.5,6,5.5,7.1l-28.6,111.6c-0.5,0.1-1,0.1-1.8,0.2
		c-0.6,0-1.2,0.2-1.8,0.5L216.8,395.6z M325.5,437c0.7,0.2,1.4,0.2,2.1,0l0,0c3.3-0.5,6.1-2.7,7.3-5.8l90.1,20.6l26.7,6
		c0.1,0.5-0.1,1.1-0.1,1.8c0.1,0.8,0.4,1.5,0.5,2.3L300,551.3c-0.7-1.2-1.8-2.2-3.1-2.8L325.5,437z M494.6,282.9
		c0.2,1.3,0.6,2.6,1.2,3.7L332.5,421.8l0,0l0,0l0,0c-0.7-0.7-1.6-1.2-2.5-1.5l54.4-199l2-0.2c2.4-0.3,4.5-1.5,6.1-3.3l102.6,60.7
		C494.5,279.9,494.3,281.4,494.6,282.9z M502.9,290.8c0.5-0.1,1.3,0.1,1.8,0.1l0,0c3.5-0.4,6.5-2.9,7.5-6.3L631,304.9
		c0.1,0.5-0.1,1.1-0.1,1.8c0,1.6,0.6,3.2,1.5,4.5L466.8,452c-0.8-0.6-1.6-1.1-2.5-1.5L502.9,290.8z M693.7,364.4l-225.1,89.8
		c0-0.1-0.1-0.2-0.3-0.2l0,0l165.9-141.1c1.7,1.4,3.9,1.9,6.1,1.6c2.2-0.2,4.2-1.3,5.6-3l49.3,45.6c-1.1,1.5-1.7,3.3-1.7,5.3
		C693.4,363.1,693.5,363.7,693.7,364.4z M631.2,302.3L631.2,302.3l-118.7-20.4c-0.1-0.5-0.1-0.8-0.1-1.3c-0.3-1.9-1.1-3.7-2.4-5.1
		l8.6-10.8l81.2-103c1.6,0.9,3.5,1.3,5.3,1.2l32.7,133.8C634.8,297.4,632.3,299.5,631.2,302.3z M665.8,90.6c0.8,0.6,1.7,1,2.7,1.3
		l-27.6,205l0,0c-0.3,0-0.5-0.2-0.8-0.2l-32.8-134.3c3.8-1.5,6.1-5.4,5.6-9.4c-0.2-1.6-0.8-3.2-1.8-4.5L665.8,90.6z M436.9,90.5
		l225.2-5.7c0.3,1.5,0.9,2.9,1.9,4l-54.5,57.8c-1.8-1.2-4-1.8-6.1-1.6c-2.9,0.4-5.5,2.1-7,4.7l0,0l0,0l0,0L436.7,91.3
		C436.7,91.1,436.8,90.8,436.9,90.5z M427.9,97.9c3.2,0,6-1.7,7.6-4.2l159.8,58.6c-0.2,0.9-0.3,1.9-0.2,2.9c0.3,1.9,1.1,3.7,2.4,5.2
		l-89.8,113.8c-1.7-0.9-3.6-1.3-5.6-1.2c-2.4,0.3-4.5,1.5-6.1,3.3l-102.6-60.7c0.6-1.4,0.8-2.9,0.5-4.5c-0.3-3-2.2-5.7-4.9-6.9
		l36.9-106.4C426.7,97.8,427.3,97.9,427.9,97.9z M421.9,95.6c0.7,0.6,1.4,1.1,2.2,1.5l-36.9,106c-0.9-0.2-1.7-0.3-2.6-0.2
		c-3.9,0.5-7,3.5-7.7,7.3l0,0l-106.8-3.5c-0.1-1-0.4-2-0.9-2.9L421.9,95.6z M270,209.7l106.5,3.4c0.3,3.2,2.4,6,5.5,7.1l-54.3,199
		c-0.7-0.1-1.4-0.1-2.1,0h-0.3l0,0l-60.4-203C267.5,215,269.4,212.6,270,209.7z M260.1,217c0.3,0,0.7,0.1,1,0.1c0.4,0,0.7,0,1.1-0.1
		l60.6,203c-1.9,0.8-3.4,2.2-4.2,4.1l0,0L220.8,390c0.2-0.9,0.3-1.7,0.2-2.6c-0.3-3.2-2.4-6-5.5-7.1L260.1,217z M257.6,216.3
		l-44.5,162.9c-0.7-0.1-1.4-0.1-2.1,0c-1.9,0.3-3.7,1.1-5.1,2.4l0,0l0,0l0,0l-10.7-8.3l-93.7-72.9c0.9-1.7,1.3-3.6,1.2-5.6
		c0-0.7-0.2-1.4-0.5-2l151.6-79.4C254.8,214.6,256.1,215.7,257.6,216.3z M14.6,165.4c1.3-1,2.4-2.4,3-4L252,207.5c0,0.1,0,0.3,0,0.4
		c0,1.1,0.2,2.2,0.6,3.2l-151.9,79.8c-1.8-2.7-5-4.1-8.2-3.7c-0.9,0.1-1.7,0.4-2.5,0.8l0,0L14.6,165.4z M44.7,429.2l47-124.4
		c0.9,0.2,1.9,0.3,2.9,0.2l0,0c1.9-0.3,3.7-1.1,5.1-2.4l104.4,81.2c-0.9,1.7-1.3,3.6-1.2,5.6v0.2L49,433.9
		C48.2,431.8,46.6,430.2,44.7,429.2z M47,443.8c0.4-0.4,0.7-0.8,1-1.2l236.8,111.7c-0.2,0.6-0.3,1.2-0.3,1.8l-136.2,7.4
		c-0.9-4.6-5.2-7.7-9.8-7.2c-1.2,0.1-2.4,0.5-3.5,1.2l0,0L47,443.8z M202,781.5L82,729.9c0.2-0.8,0.3-1.6,0.3-2.5
		c0-3.3-1.8-6.3-4.5-7.8l59.6-145.5c1,0.2,2.1,0.2,3.1,0.2c0.3,0,0.3,0,0.5-0.1l64.9,203.9C204.3,778.9,202.9,780,202,781.5z
		 M209.6,777.3c-0.5,0-1,0.1-1.5,0.1l-64.9-204c2.8-1.5,4.7-4.2,5.1-7.3l136.2-7.4c0.5,2.7,2.2,5,4.6,6.2l-77.5,212.6
		C211,777.4,210.3,777.3,209.6,777.3z M345.1,681.1c0.1,1.2,0.5,2.3,1.1,3.2L216,780c-0.6-0.6-1.3-1.1-2.1-1.5l77.6-212.7
		c0.9,0.2,1.9,0.3,2.9,0.2c0.6,0,1.2-0.2,1.8-0.5l52.9,107.2C346.3,674.5,344.7,677.8,345.1,681.1z M353.5,671.1
		c-0.6,0-1.2,0.2-1.8,0.5l-52.9-107.2c2.4-2.1,3.7-5.2,3.4-8.4c-0.1-0.8-0.4-1.5-0.5-2.3L454,464.3c0.5,0.7,1.2,1.4,2,1.8
		l-98.8,205.3C356,671.1,354.8,671,353.5,671.1z M360.9,674.4c-0.4-0.8-1-1.5-1.8-1.9l98.8-205.3c1.2,0.4,2.4,0.5,3.7,0.4
		c1.4-0.2,2.8-0.7,4-1.5l79.2,89c-1.6,1.8-2.4,4.3-2.1,6.7c0.1,0.9,0.4,1.7,0.8,2.5L360.9,674.4z M500.2,744.1
		c-3.1,0-5.8,1.5-7.4,3.9l-130.1-65.2c0.4-1.3,0.5-2.6,0.3-3.9c-0.1-0.9-0.4-1.7-0.8-2.5l182.6-110.1c0.8,1.2,2,2,3.4,2.5
		l-46.6,175.5C501,744.1,500.6,744.1,500.2,744.1z M610.2,700.3c0,0.9,0.1,1.7,0.4,2.5l-102.4,45.9l0,0c-0.9-1.6-2.3-2.9-3.9-3.7
		l46.6-175.3c0.7,0.1,1.4,0.1,2.1,0l0,0c0.6,0,1.2-0.2,1.8-0.4l59.6,123.5C611.8,694.4,610.2,697.1,610.2,700.3z M727.1,654.6
		l-78.4,32.2l-21.6,8.9c-1.5-2.6-4.3-4.3-7.5-4.4h-0.1c-0.1,0-0.2,0-0.2,0c-0.3,0-0.6,0-0.9,0h-0.1c-0.4,0-0.7,0.1-1.1,0.2
		c-0.2,0.1-0.5,0.1-0.7,0.2l-59.6-123.5c0.9-0.6,1.7-1.4,2.3-2.3l168,83.7c-0.3,0.9-0.4,1.8-0.4,2.7
		C726.8,653.1,726.9,653.8,727.1,654.6z M728.2,647.3l-168-83.6c0.2-0.8,0.3-1.6,0.5-2.6l106-12c1.1,4.3,5.1,7.1,9.5,6.7
		c0.8-0.1,1.5-0.4,2.3-0.5l51.5,90.2C729.3,645.9,728.7,646.6,728.2,647.3z M735.6,661.4L735.6,661.4c0.1,0,0.1,0,0.2,0H735.6z
		 M735.9,643.2c-1.2,0-2.4,0.2-3.4,0.7l-51.1-90c2.5-1.9,3.8-5,3.5-8.1c0-0.5-0.2-1-0.4-1.5l36.1-16.2l-0.3-2.6L683.4,542
		c-1.1-1.9-3-3.2-5.1-3.8L703,371.5c1.6-0.1,3.1-0.6,4.4-1.4l88.1,113.6c-1.9,1.9-2.9,4.6-2.5,7.3c0,0.5,0.2,1,0.4,1.5l-73.2,32.8
		v0.1l0.2-0.1l0.3,2.6l-0.2,0.1v0.1l73.9-33.2c0.8,1.2,1.8,2.2,2.9,3l-59.4,145.4C737.2,643.2,736.6,643.2,735.9,643.2z
		 M863.3,705.9l-118.7-51c0.3-0.8,0.4-1.7,0.4-2.6c0-3.4-1.9-6.4-4.7-8L799.8,499c1,0.2,2.1,0.2,3.1,0.2l0.5-0.1l64.4,202.4
		C865.8,702.4,864.2,704,863.3,705.9z M871.5,700.7c-0.5,0-1,0-1.4,0.1l-64.4-202.5c2.8-1.5,4.7-4.2,5.1-7.3l136.2-7.4
		c0.5,2.7,2.2,5,4.6,6.2l-77.1,211.4C873.5,700.9,872.5,700.7,871.5,700.7z M1007.3,604.7c0,1.7,0.5,3.2,1.2,4.6l-129.7,95.2
		c-0.6-0.8-1.3-1.6-2.2-2.1l77.2-211.8c0.9,0.2,1.9,0.3,2.9,0.2c0.6,0,1.2-0.2,1.8-0.5l52.8,106.9
		C1008.9,598.8,1007.3,601.6,1007.3,604.7z M1016.4,595.6c-0.9,0-1.7,0.1-2.5,0.4l-52.7-106.7c2.4-2.1,3.7-5.2,3.4-8.4
		c-0.1-0.8-0.4-1.5-0.5-2.3l152.2-89.4c0.5,0.7,1.2,1.4,2,1.8l-98.7,205.2C1018.6,595.8,1017.5,595.6,1016.4,595.6z M1023.6,599.1
		c-0.6-0.7-1.2-1.4-2-1.9l98.7-205.1c1.2,0.4,2.4,0.5,3.7,0.4l0,0c1.4-0.2,2.8-0.7,4-1.5l79.2,89c-1.6,1.8-2.4,4.3-2.1,6.7
		c0.1,0.9,0.4,1.7,0.8,2.5L1023.6,599.1z M1162.7,667.2c-3.7,0-6.8,2.2-8.2,5.3L1025,607.6c0.3-0.9,0.5-1.9,0.5-2.9
		c0-1.3-0.3-2.5-0.8-3.6l182.4-110c0.8,1.2,2,2,3.4,2.5l-46.2,173.8C1163.8,667.3,1163.2,667.2,1162.7,667.2z M1272.7,626.1
		c0,0.5,0.2,1,0.4,1.5l-101.9,45.7c-0.8-2.1-2.3-3.9-4.3-5l46.2-173.7c0.7,0.1,1.4,0.1,2.1,0l0,0c0.6,0,1.2-0.2,1.8-0.4l59.7,123.5
		C1273.8,619.5,1272.3,622.7,1272.7,626.1z M1388.7,579.7l-77.6,31.9l-21.7,8.9c-1.8-3.1-5.2-4.8-8.8-4.4c-0.6,0-1.2,0.2-1.8,0.5
		l0,0l-59.7-123.5c0.9-0.6,1.7-1.4,2.3-2.3l167.3,83.3c-0.3,0.9-0.5,2-0.5,3C1388.3,578,1388.4,578.9,1388.7,579.7z M1389.9,571.9
		l-167.4-83.3c0.2-0.8,0.3-1.6,0.5-2.6l106-12c1.1,4.3,5.1,7.1,9.5,6.7c0.8-0.1,1.5-0.4,2.3-0.5l51.3,89.6
		C1391.2,570.3,1390.5,571,1389.9,571.9z"/>
</g>
</svg>
